<svg width="2474" height="1950" viewBox="0 0 2474 1950" fill="none" xmlns="http://www.w3.org/2000/svg">
<path d="M1637.62 639.458L2187.6 983.782L2287.75 1289.46L1813.33 1152.43L1637.62 639.458Z" fill="#6D6D93"/>
<path d="M2287.75 1763.78H1813.33V1154.19L2287.75 1289.46V1763.78Z" fill="#E9E9E9"/>
<path d="M729.202 1892.03L532.407 437.431C528.893 412.836 507.808 393.512 483.208 393.512H384.81C360.211 393.512 340.883 411.079 335.612 435.674L89.6172 1890.27C84.3459 1918.38 103.674 1942.97 130.031 1948.24C131.788 1948.24 135.302 1948.24 138.816 1948.24H680.004C706.36 1948.24 729.202 1925.4 729.202 1897.3C729.202 1897.3 729.202 1893.78 729.202 1892.03ZM528.893 1147.16H316.283L349.668 946.89H500.779L528.893 1147.16ZM426.981 495.404H441.038L455.094 595.539H409.41L426.981 495.404ZM391.839 695.674H467.394L488.479 846.755H367.239L391.839 695.674ZM198.558 1848.11L298.712 1249.05H541.192L622.019 1849.86H198.558V1848.11Z" fill="#D0D0D0"/>
<path d="M423.472 1856.89V1031.22L599.182 693.919L1103.47 562.162L1607.76 693.919L1783.47 1031.22V1856.89H423.472Z" fill="white"/>
<path d="M590.396 723.785L414.686 1062.84V1888.51H527.14V1089.19L794.22 672.839L590.396 723.785Z" fill="#D8D8D8"/>
<path d="M838.141 379.46L780.157 187.973L486.721 330.27L535.919 3.51351L340.881 0L383.052 328.514L93.1297 179.189L29.874 370.676L347.909 430.405L119.486 665.811L277.625 785.27L432.25 493.649L579.847 788.784L739.743 672.838L518.348 432.162L838.141 379.46Z" fill="#ABAACB"/>
<path d="M1101.7 593.785L1583.15 720.272L1748.31 1038.24V1825.27H455.086V1038.24L620.253 720.272L1101.7 593.785ZM1101.7 528.785L576.326 665.812L391.83 1022.43V1886.76H1813.33V1022.43L1627.07 665.812L1101.7 528.785Z" fill="#323063"/>
<path d="M1256.33 837.972H947.085V1147.16H1256.33V837.972Z" fill="white"/>
<path d="M1504.08 1763.78V1361.49H701.08V1763.78H391.83V1918.38H1813.33V1763.78H1504.08Z" fill="#E7E7E7"/>
<path d="M1145.63 990.809L1279.17 857.296C1291.47 844.998 1291.47 825.674 1279.17 813.377C1266.87 801.079 1247.55 801.079 1235.25 813.377L1101.71 948.647L968.167 815.134C955.867 802.836 936.539 802.836 924.239 815.134C911.94 827.431 911.94 846.755 924.239 859.052L1057.78 992.566L925.997 1124.32C913.697 1136.62 913.697 1155.94 925.997 1168.24C931.268 1173.51 940.053 1177.03 947.082 1177.03C954.11 1177.03 962.896 1173.51 968.167 1168.24L1101.71 1034.73L1235.25 1168.24C1240.52 1173.51 1249.3 1177.03 1256.33 1177.03C1263.36 1177.03 1272.15 1173.51 1277.42 1168.24C1289.72 1155.94 1289.72 1136.62 1277.42 1124.32L1145.63 990.809Z" fill="#323063"/>
<path d="M1101.71 1918.38C1092.92 1918.38 1082.38 1914.87 1077.11 1906.08L674.733 1380.81C664.191 1366.76 665.948 1347.43 680.005 1336.89C694.062 1326.35 713.39 1328.11 723.932 1342.16L1126.31 1867.43C1136.85 1881.49 1135.09 1900.81 1121.04 1911.35C1115.77 1916.62 1108.74 1918.38 1101.71 1918.38Z" fill="#323063"/>
<path d="M701.084 1918.38C694.055 1918.38 687.027 1916.62 681.756 1911.35C667.699 1900.81 665.942 1881.49 676.484 1867.43L1078.86 1342.16C1089.4 1328.11 1108.73 1326.35 1122.79 1336.89C1136.85 1347.43 1138.6 1366.76 1128.06 1380.81L725.683 1906.08C718.655 1914.87 709.869 1918.38 701.084 1918.38Z" fill="#323063"/>
<path d="M1504.08 1918.38C1495.29 1918.38 1484.75 1914.87 1479.48 1906.08L1077.1 1380.81C1066.56 1366.76 1068.31 1347.43 1082.37 1336.89C1096.43 1326.35 1115.76 1328.11 1126.3 1342.16L1528.68 1869.19C1539.22 1883.24 1537.46 1902.57 1523.4 1913.11C1518.13 1916.62 1511.1 1918.38 1504.08 1918.38Z" fill="#323063"/>
<path d="M1101.7 1918.38C1094.67 1918.38 1087.64 1916.62 1082.37 1911.35C1068.31 1900.81 1066.56 1881.49 1077.1 1867.43L1479.48 1342.16C1490.02 1328.11 1509.35 1326.35 1523.4 1336.89C1537.46 1347.43 1539.22 1366.76 1528.68 1380.81L1126.3 1906.08C1121.03 1914.87 1112.24 1918.38 1101.7 1918.38Z" fill="#323063"/>
<path d="M1256.34 1177.03H947.088C929.517 1177.03 915.46 1162.97 915.46 1145.4V837.971C915.46 820.404 929.517 806.35 947.088 806.35H1256.34C1273.91 806.35 1287.97 820.404 1287.97 837.971V1147.16C1287.97 1162.97 1273.91 1177.03 1256.34 1177.03ZM978.716 1115.54H1226.47V867.836H978.716V1115.54Z" fill="#323063"/>
<path d="M1535.7 1918.38V1393.11C1553.28 1393.11 1567.33 1379.05 1567.33 1361.48V1329.86C1567.33 1312.3 1553.28 1298.24 1535.7 1298.24H669.453C651.882 1298.24 637.825 1312.3 637.825 1329.86V1361.48C637.825 1379.05 651.882 1393.11 669.453 1393.11V1918.38H730.952V1393.11H1071.83V1918.38H1133.33V1393.11H1474.21V1918.38H1535.7Z" fill="#323063"/>
<path d="M1837.93 1192.84L1556.8 744.863L1103.47 602.566L650.133 744.863L368.997 1192.84C360.211 1206.89 340.883 1212.16 326.826 1203.38L274.113 1170C260.056 1161.21 254.785 1141.89 263.571 1127.84L569.306 639.458L1105.22 472.566L1639.38 639.458L1945.12 1127.84C1953.9 1141.89 1950.39 1161.21 1934.57 1170L1881.86 1203.38C1866.05 1212.16 1846.72 1208.65 1837.93 1192.84Z" fill="#323063"/>
<path d="M2287.75 1763.78H1813.33V1886.76H2287.75V1763.78Z" fill="#D8D8D8"/>
<path d="M2256.12 795.812C2359.78 795.812 2444.13 880.136 2444.13 983.785V1284.19C2444.13 1387.84 2359.78 1472.16 2256.12 1472.16C2152.45 1472.16 2068.11 1387.84 2068.11 1284.19V983.785C2066.35 880.136 2150.69 795.812 2256.12 795.812Z" fill="#008100"/>
<path d="M2217.47 1210.4H2293.02V1888.51H2217.47V1210.4Z" fill="#763A02"/>
<path d="M2431.83 1950H42.1705C19.3281 1950 0 1935.94 0 1918.38C0 1900.81 19.3281 1886.75 42.1705 1886.75H2430.07C2452.91 1886.75 2472.24 1900.81 2472.24 1918.38C2474 1935.94 2454.67 1950 2431.83 1950Z" fill="#31BE00"/>
</svg>
