<svg width="170" height="160" viewBox="0 0 170 160" fill="none" xmlns="http://www.w3.org/2000/svg">
<g clip-path="url(#clip0)">
<path d="M147.483 102.992L146.069 103.201L130.022 105.879C129.963 105.879 129.904 105.969 129.934 106.028C130.052 106.266 130.258 106.832 130.258 107.606C130.258 110.403 127.961 112.665 125.134 112.665C122.337 112.665 120.07 110.433 120.011 107.695C119.952 107.635 119.952 107.635 119.893 107.576L89.5656 112.755C89.0356 112.933 88.8589 113.022 88.8589 113.737V118.796C88.8589 118.856 88.9178 118.915 88.9767 118.915C90.92 119.005 92.51 120.671 92.51 122.725C92.51 124.779 90.9494 126.475 88.9767 126.535C88.9178 126.535 88.8589 126.594 88.8589 126.654V132.874C88.8589 132.934 88.9178 132.993 88.9767 132.993C92.0389 132.457 114.888 128.558 131.848 125.671C132.113 125.612 132.378 125.582 132.643 125.523C132.702 125.523 132.731 125.463 132.731 125.404C132.643 125.046 132.613 124.66 132.613 124.273C132.613 121.356 135.028 118.975 138.031 118.975C140.769 118.975 143.037 120.969 143.39 123.588C143.39 123.648 143.449 123.707 143.508 123.677C145.274 123.38 146.629 123.142 147.453 122.993C147.512 122.993 147.542 122.933 147.542 122.874C147.542 122.606 147.542 122.159 147.542 121.564C147.571 117.784 147.659 107.754 147.659 103.736C147.659 103.498 147.63 103.26 147.571 103.022C147.6 103.022 147.542 102.992 147.483 102.992Z" fill="#FFC964"/>
<path d="M91.5088 110.314L120.423 105.463C120.453 105.463 120.482 105.433 120.512 105.403C121.365 103.796 123.103 103.409 124.398 103.231C124.634 103.201 124.899 103.171 125.134 103.171C126.283 103.171 127.402 103.498 128.285 104.094C128.314 104.123 128.344 104.123 128.373 104.123L145.745 101.207L146.452 101.088C146.482 100.969 146.482 100.998 146.511 100.909C144.774 99.0638 142.948 97.4864 141.123 96.1173C141.093 96.0876 141.034 96.0876 141.005 96.1173C140.18 96.6233 139.15 96.9209 138.002 96.9209C135.293 96.9209 133.173 95.2542 133.173 93.1411C133.173 92.6649 133.29 92.2184 133.467 91.8018C133.497 91.7422 133.467 91.6827 133.408 91.6529C127.107 88.9148 121.218 88.3493 117.361 88.3493C117.008 88.3493 116.713 88.4386 116.537 88.5874C116.272 88.8255 105.407 98.1114 101.991 101.088C101.844 101.207 101.962 101.326 102.02 101.385C102.668 101.981 103.022 102.725 103.022 103.528C103.022 104.808 102.079 105.969 100.519 106.594C99.7532 106.891 98.8405 107.07 97.9571 107.07C97.1916 107.07 96.3966 106.951 95.7194 106.713C95.6899 106.713 95.5132 106.683 95.4544 106.743C95.366 106.832 95.1305 107.01 94.7771 107.308C94.0999 107.874 92.5099 109.183 91.391 110.135C91.3321 110.195 91.391 110.344 91.5088 110.314ZM116.684 94.2423C119.393 94.2423 121.513 95.909 121.513 98.0221C121.513 100.135 119.393 101.802 116.684 101.802C113.975 101.802 111.855 100.135 111.855 98.0221C111.855 95.909 113.975 94.2423 116.684 94.2423Z" fill="#FFE183"/>
<path d="M106.997 113.856C105.112 113.856 103.581 115.344 103.581 117.13C103.581 118.945 105.112 120.404 106.997 120.404C108.881 120.404 110.412 118.915 110.412 117.13C110.412 115.344 108.881 113.856 106.997 113.856Z" fill="#F3A334"/>
<path d="M104.994 117.159C104.994 115.582 106.172 114.272 107.703 113.945C107.468 113.886 107.232 113.886 106.997 113.886C105.112 113.886 103.581 115.374 103.581 117.159C103.581 118.975 105.112 120.433 106.997 120.433C107.232 120.433 107.468 120.404 107.703 120.374C106.143 120.046 104.994 118.737 104.994 117.159Z" fill="#E87E04"/>
<path d="M125.135 105.225C124.958 105.225 124.811 105.225 124.634 105.254C122.75 105.492 122.308 106.088 122.131 106.683C122.043 106.981 122.013 107.07 122.013 107.635C122.013 109.332 123.427 110.701 125.135 110.701C126.872 110.701 128.256 109.332 128.256 107.635C128.256 106.832 127.814 106.296 127.431 105.998C126.872 105.492 126.018 105.225 125.135 105.225Z" fill="#FFC964"/>
<path d="M123.545 107.397C123.545 106.594 123.839 105.85 124.34 105.284C122.72 105.552 122.308 106.088 122.131 106.653C122.043 106.951 122.013 107.04 122.013 107.606C122.013 109.302 123.427 110.671 125.135 110.671C125.458 110.671 125.753 110.612 126.018 110.552C124.605 110.165 123.545 108.885 123.545 107.397Z" fill="#F3A334"/>
<path d="M116.684 99.7782C118.185 99.7782 119.54 98.9448 119.54 98.0222C119.54 97.1888 118.362 96.2662 116.684 96.2662C115.005 96.2662 113.828 97.1888 113.828 98.0222C113.828 98.9448 115.153 99.7782 116.684 99.7782Z" fill="#FFC964"/>
<path d="M148.042 99.6293C146.305 97.784 144.45 96.1173 142.448 94.6292C142.153 94.4209 141.888 94.2125 141.594 94.0042C141.211 93.7363 140.711 93.7958 140.357 94.1232C140.063 94.3911 139.621 94.6292 139.15 94.778C138.797 94.8673 138.414 94.9268 138.002 94.9268C136.5 94.9268 135.146 94.0935 135.146 93.1708C135.146 92.9625 135.204 92.7839 135.322 92.5756C135.499 92.3077 135.764 92.0696 136.117 91.8613C136.559 91.6232 136.529 90.9684 136.058 90.7303C135.705 90.5517 135.322 90.3732 134.939 90.1946C133.232 89.4208 131.465 88.7362 129.61 88.1707C125.664 86.9802 121.513 86.3552 117.391 86.3552C116.566 86.3552 115.801 86.5933 115.271 87.0695C115.035 87.2779 102.462 98.0519 99.9889 100.165C99.7533 100.373 99.5472 100.611 99.4295 100.82C99.1056 101.415 99.4 102.1 99.9889 102.397C100.637 102.695 100.961 103.171 100.961 103.558C100.961 103.975 100.578 104.391 99.8122 104.689C99.2528 104.897 98.6345 105.016 97.9867 105.016C97.4272 105.016 96.8678 104.927 96.3672 104.778C96.3672 104.778 95.9256 104.6 95.5722 104.6C95.1011 104.6 94.63 104.808 94.1883 105.165C94.1 105.225 93.8645 105.433 93.5406 105.701C90.9789 107.844 89.1828 109.362 88.7411 109.897C88.1817 110.552 87.8578 111.088 87.74 111.266C87.5045 111.564 86.8567 112.606 86.8567 114.272V119.451C86.8567 120.493 87.5339 120.969 88.2406 120.969C88.3878 120.969 88.5056 120.939 88.5645 120.939H88.5939C88.6528 120.939 88.7411 120.939 88.8 120.939C89.7128 120.939 90.4784 121.743 90.4784 122.755C90.4784 123.767 89.7128 124.57 88.8 124.57C88.7411 124.57 88.6822 124.57 88.6234 124.57C88.5645 124.57 88.5056 124.57 88.4172 124.57C87.6517 124.57 86.8567 125.136 86.8567 126.118V133.32C86.8567 134.332 87.6222 135.136 88.6234 135.136C88.7411 135.136 88.8589 135.136 88.9767 135.106C89.7128 134.987 115.271 130.612 132.172 127.755C132.672 127.666 133.173 127.576 133.644 127.517H133.703C134.616 127.368 135.116 126.386 134.792 125.523C134.763 125.463 134.733 125.374 134.704 125.314C134.616 125.017 134.557 124.719 134.557 124.421C134.557 122.606 136.088 121.148 137.972 121.148C139.768 121.148 141.241 122.487 141.388 124.183C141.388 124.273 141.388 124.332 141.388 124.421V124.451C141.388 125.374 142.212 126.088 143.096 125.91H143.154C145.422 125.523 147.129 125.225 147.983 125.076C148.66 124.957 149.485 124.57 149.485 123.29C149.485 123.231 149.485 122.665 149.485 121.743C149.514 117.963 149.603 107.903 149.603 103.885C149.603 102.814 149.22 101.772 149.132 101.564C149.132 101.266 148.778 100.403 148.042 99.6293ZM91.4206 110.135C92.5395 109.153 94.1295 107.844 94.8067 107.308C95.16 107.01 95.3956 106.802 95.4839 106.743C95.5428 106.713 95.7195 106.713 95.7489 106.713C96.4261 106.951 97.2211 107.07 97.9867 107.07C98.8995 107.07 99.7828 106.891 100.548 106.594C102.109 105.939 103.051 104.808 103.051 103.498C103.051 102.695 102.698 101.981 102.05 101.356C101.991 101.296 101.873 101.177 102.021 101.058C105.466 98.1114 116.301 88.7957 116.566 88.5576C116.743 88.4088 117.037 88.3195 117.391 88.3195C121.218 88.3195 127.107 88.885 133.438 91.6232C133.497 91.6529 133.526 91.7125 133.497 91.772C133.291 92.1887 133.202 92.6351 133.202 93.1113C133.202 95.2245 135.322 96.8912 138.031 96.8912C139.179 96.8912 140.21 96.5935 141.034 96.0876C141.064 96.0578 141.123 96.0578 141.152 96.0876C142.978 97.4566 144.774 99.034 146.54 100.879C146.511 100.998 146.511 100.969 146.482 101.058L145.745 101.236L128.373 104.153C128.344 104.153 128.314 104.153 128.285 104.123C127.402 103.528 126.283 103.201 125.134 103.201C124.869 103.201 124.634 103.231 124.398 103.26C123.103 103.439 121.336 103.826 120.512 105.433C120.482 105.463 120.482 105.493 120.423 105.493L91.5089 110.314C91.3911 110.344 91.3322 110.195 91.4206 110.135ZM127.461 105.998C127.843 106.296 128.285 106.832 128.285 107.635C128.285 109.332 126.872 110.701 125.164 110.701C123.427 110.701 122.043 109.332 122.043 107.635C122.043 107.07 122.072 106.981 122.161 106.683C122.337 106.088 122.779 105.493 124.663 105.254C124.84 105.225 124.987 105.225 125.164 105.225C126.018 105.225 126.872 105.493 127.461 105.998ZM147.571 121.594C147.571 122.189 147.571 122.636 147.571 122.904C147.571 122.963 147.542 122.993 147.483 123.023C146.658 123.171 145.304 123.41 143.537 123.707C143.478 123.707 143.419 123.677 143.419 123.618C143.066 121.029 140.799 119.005 138.061 119.005C135.087 119.005 132.643 121.386 132.643 124.302C132.643 124.689 132.702 125.046 132.761 125.433C132.761 125.493 132.731 125.552 132.672 125.552C132.407 125.612 132.142 125.642 131.877 125.701C114.947 128.588 92.0683 132.487 89.0061 133.023C88.9472 133.023 88.8884 132.993 88.8884 132.904V126.683C88.8884 126.624 88.9472 126.564 89.0061 126.564C90.9495 126.475 92.5395 124.808 92.5395 122.755C92.5395 120.701 90.9789 119.005 89.0061 118.945C88.9472 118.945 88.8884 118.886 88.8884 118.826V113.737C88.8884 113.022 89.065 112.933 89.595 112.755L119.923 107.606C119.982 107.665 119.982 107.665 120.041 107.725C120.099 110.463 122.367 112.695 125.164 112.695C127.991 112.695 130.287 110.433 130.287 107.635C130.287 106.862 130.081 106.296 129.963 106.058C129.934 105.998 129.963 105.909 130.052 105.909L146.099 103.231L147.512 103.022C147.571 103.022 147.63 103.052 147.63 103.112C147.689 103.35 147.718 103.588 147.718 103.826C147.689 107.784 147.6 117.814 147.571 121.594Z" fill="#323063"/>
<path d="M116.684 101.772C119.393 101.772 121.513 100.105 121.513 97.9923C121.513 95.8792 119.393 94.2125 116.684 94.2125C113.975 94.2125 111.855 95.8792 111.855 97.9923C111.855 100.105 113.975 101.772 116.684 101.772ZM116.684 96.2363C118.362 96.2363 119.54 97.1589 119.54 97.9923C119.54 98.9149 118.215 99.7483 116.684 99.7483C115.182 99.7483 113.828 98.9149 113.828 97.9923C113.828 97.1887 115.006 96.2363 116.684 96.2363Z" fill="#323063"/>
<path d="M106.997 111.862C104.023 111.862 101.579 114.243 101.579 117.159C101.579 120.076 103.993 122.457 106.997 122.457C109.971 122.457 112.414 120.076 112.414 117.159C112.414 114.243 109.971 111.862 106.997 111.862ZM106.997 120.433C105.112 120.433 103.581 118.945 103.581 117.159C103.581 115.344 105.112 113.886 106.997 113.886C108.881 113.886 110.412 115.374 110.412 117.159C110.412 118.975 108.881 120.433 106.997 120.433Z" fill="#323063"/>
<path d="M114.917 97.5757C114.917 97.1293 115.241 96.6828 115.8 96.3257C114.623 96.5638 113.828 97.3078 113.828 97.9924C113.828 98.915 115.153 99.7484 116.684 99.7484C117.42 99.7484 118.127 99.54 118.657 99.2424C118.362 99.3019 118.068 99.3317 117.773 99.3317C116.242 99.3317 114.917 98.5281 114.917 97.5757Z" fill="#F3A334"/>
<path d="M88.9474 126.594C88.8885 126.594 88.8296 126.654 88.8296 126.713V132.934C88.8296 132.993 88.8885 133.053 88.9474 133.053C89.389 132.993 90.2135 132.844 91.3324 132.636V125.523C90.7435 126.118 89.8896 126.535 88.9474 126.594Z" fill="#F3A334"/>
<path d="M89.5658 112.784C89.0358 112.963 88.8591 113.052 88.8591 113.766V118.826C88.8591 118.886 88.918 118.945 88.9769 118.945C89.9191 118.975 90.773 119.392 91.3913 120.046V112.487L89.5658 112.784Z" fill="#F3A334"/>
<path d="M117.391 88.3791C117.037 88.3791 116.743 88.4684 116.566 88.6172C116.301 88.8553 105.436 98.1412 102.021 101.117C101.874 101.236 101.991 101.356 102.05 101.415C102.433 101.772 102.727 102.159 102.875 102.606L119.364 88.4386C118.657 88.4089 118.009 88.3791 117.391 88.3791Z" fill="#F3A334"/>
<path d="M95.749 106.713C95.7196 106.713 95.5429 106.683 95.484 106.743C95.3957 106.832 95.1601 107.01 94.8068 107.308C94.1296 107.874 92.5396 109.183 91.4207 110.135C91.3324 110.195 91.3913 110.344 91.509 110.344L94.424 109.868L97.6924 107.07C97.0151 107.04 96.3379 106.921 95.749 106.713Z" fill="#F3A334"/>
</g>
<g clip-path="url(#clip1)">
<path d="M136.298 78.8885L134.881 79.095L118.791 81.751C118.732 81.751 118.673 81.8395 118.703 81.8985C118.821 82.1346 119.027 82.6953 119.027 83.4626C119.027 86.2366 116.725 88.4793 113.89 88.4793C111.086 88.4793 108.813 86.2661 108.753 83.5511C108.694 83.4921 108.694 83.4921 108.635 83.4331L78.2266 88.5679C77.6952 88.7449 77.5181 88.8335 77.5181 89.5417V94.5585C77.5181 94.6175 77.5771 94.6765 77.6362 94.6765C79.5847 94.7651 81.1789 96.4176 81.1789 98.4539C81.1789 100.49 79.6142 102.172 77.6362 102.231C77.5771 102.231 77.5181 102.29 77.5181 102.349V108.517C77.5181 108.576 77.5771 108.635 77.6362 108.635C80.7066 108.104 103.616 104.238 120.622 101.375C120.887 101.316 121.153 101.287 121.419 101.228C121.478 101.228 121.507 101.169 121.507 101.11C121.419 100.756 121.389 100.372 121.389 99.9884C121.389 97.0964 123.81 94.7356 126.822 94.7356C129.567 94.7356 131.84 96.7128 132.195 99.3097C132.195 99.3687 132.254 99.4277 132.313 99.3982C134.084 99.1031 135.442 98.867 136.269 98.7195C136.328 98.7195 136.358 98.6604 136.358 98.6014C136.358 98.3358 136.358 97.8932 136.358 97.303C136.387 93.5551 136.476 83.6101 136.476 79.6262C136.476 79.3901 136.446 79.1541 136.387 78.918C136.417 78.918 136.358 78.8885 136.298 78.8885Z" fill="#FFC964"/>
<path d="M80.1752 86.1481L109.167 81.3378C109.196 81.3378 109.226 81.3083 109.255 81.2788C110.112 79.6853 111.853 79.3016 113.152 79.1246C113.389 79.0951 113.654 79.0655 113.891 79.0655C115.042 79.0655 116.164 79.3902 117.05 79.9804C117.079 80.0099 117.109 80.0099 117.138 80.0099L134.557 77.1179L135.265 76.9998C135.295 76.8818 135.295 76.9113 135.324 76.8228C133.582 74.9931 131.752 73.4291 129.922 72.0716C129.892 72.0421 129.833 72.0421 129.803 72.0716C128.977 72.5733 127.944 72.8684 126.792 72.8684C124.076 72.8684 121.95 71.2158 121.95 69.1205C121.95 68.6484 122.068 68.2057 122.246 67.7926C122.275 67.7335 122.246 67.6745 122.187 67.645C115.869 64.9301 109.964 64.3694 106.096 64.3694C105.742 64.3694 105.447 64.4579 105.27 64.6054C105.004 64.8415 94.1101 74.0488 90.6854 76.9998C90.5378 77.1179 90.6559 77.2359 90.7149 77.2949C91.3644 77.8851 91.7187 78.6229 91.7187 79.4197C91.7187 80.6886 90.774 81.8395 89.2093 82.4592C88.4417 82.7544 87.5264 82.9314 86.6407 82.9314C85.8731 82.9314 85.076 82.8134 84.397 82.5773C84.3675 82.5773 84.1903 82.5478 84.1313 82.6068C84.0427 82.6953 83.8065 82.8724 83.4523 83.1675C82.7732 83.7282 81.179 85.0267 80.0571 85.971C79.9981 86.03 80.0571 86.1776 80.1752 86.1481ZM105.417 70.2124C108.134 70.2124 110.259 71.865 110.259 73.9602C110.259 76.0555 108.134 77.7081 105.417 77.7081C102.701 77.7081 100.576 76.0555 100.576 73.9602C100.576 71.865 102.701 70.2124 105.417 70.2124Z" fill="#FFE183"/>
<path d="M95.7042 89.6598C93.8147 89.6598 92.2795 91.1353 92.2795 92.9059C92.2795 94.7061 93.8147 96.1521 95.7042 96.1521C97.5937 96.1521 99.1289 94.6766 99.1289 92.9059C99.1289 91.1353 97.5937 89.6598 95.7042 89.6598Z" fill="#F3A334"/>
<path d="M93.6966 92.9355C93.6966 91.3714 94.8776 90.073 96.4128 89.7484C96.1766 89.6893 95.9404 89.6893 95.7042 89.6893C93.8147 89.6893 92.2795 91.1649 92.2795 92.9355C92.2795 94.7356 93.8147 96.1816 95.7042 96.1816C95.9404 96.1816 96.1766 96.1521 96.4128 96.1226C94.8481 95.798 93.6966 94.4995 93.6966 92.9355Z" fill="#E87E04"/>
<path d="M113.89 81.1017C113.713 81.1017 113.566 81.1017 113.389 81.1313C111.499 81.3673 111.056 81.9575 110.879 82.5478C110.791 82.8429 110.761 82.9314 110.761 83.4921C110.761 85.1742 112.178 86.5317 113.89 86.5317C115.632 86.5317 117.02 85.1742 117.02 83.4921C117.02 82.6953 116.577 82.1641 116.193 81.869C115.632 81.3673 114.776 81.1017 113.89 81.1017Z" fill="#FFC964"/>
<path d="M112.296 83.256C112.296 82.4593 112.591 81.7215 113.093 81.1608C111.47 81.4264 111.056 81.9576 110.879 82.5183C110.791 82.8134 110.761 82.9019 110.761 83.4626C110.761 85.1447 112.178 86.5022 113.89 86.5022C114.215 86.5022 114.51 86.4432 114.776 86.3841C113.359 86.0005 112.296 84.7316 112.296 83.256Z" fill="#F3A334"/>
<path d="M105.417 75.7014C106.923 75.7014 108.281 74.8751 108.281 73.9603C108.281 73.134 107.1 72.2191 105.417 72.2191C103.734 72.2191 102.553 73.134 102.553 73.9603C102.553 74.8751 103.882 75.7014 105.417 75.7014Z" fill="#FFC964"/>
<path d="M136.859 75.5538C135.118 73.7242 133.258 72.0716 131.25 70.5961C130.955 70.3895 130.689 70.1829 130.394 69.9763C130.01 69.7107 129.508 69.7698 129.154 70.0944C128.859 70.36 128.416 70.5961 127.943 70.7436C127.589 70.8321 127.205 70.8912 126.792 70.8912C125.286 70.8912 123.928 70.0649 123.928 69.15C123.928 68.9435 123.987 68.7664 124.105 68.5598C124.283 68.2942 124.548 68.0582 124.903 67.8516C125.345 67.6155 125.316 66.9663 124.844 66.7302C124.489 66.5531 124.105 66.3761 123.722 66.199C122.009 65.4317 120.238 64.753 118.378 64.1923C114.422 63.0119 110.259 62.3922 106.126 62.3922C105.299 62.3922 104.532 62.6282 104 63.1004C103.764 63.307 91.1577 73.9897 88.6778 76.085C88.4416 76.2916 88.2349 76.5276 88.1168 76.7342C87.7921 77.3244 88.0873 78.0032 88.6778 78.2983C89.3273 78.5934 89.652 79.0655 89.652 79.4492C89.652 79.8623 89.2682 80.2755 88.5006 80.5706C87.9397 80.7771 87.3197 80.8952 86.6702 80.8952C86.1093 80.8952 85.5483 80.8067 85.0464 80.6591C85.0464 80.6591 84.6036 80.482 84.2493 80.482C83.777 80.482 83.3046 80.6886 82.8617 81.0427C82.7732 81.1018 82.537 81.3083 82.2122 81.5739C79.6437 83.6987 77.8428 85.2037 77.4 85.7349C76.839 86.3841 76.5143 86.9153 76.3962 87.0924C76.16 87.3875 75.5105 88.4204 75.5105 90.0729V95.2077C75.5105 96.2406 76.1895 96.7128 76.8981 96.7128C77.0457 96.7128 77.1638 96.6833 77.2228 96.6833H77.2524C77.3114 96.6833 77.4 96.6833 77.459 96.6833C78.3742 96.6833 79.1418 97.4801 79.1418 98.4834C79.1418 99.4868 78.3742 100.284 77.459 100.284C77.4 100.284 77.3409 100.284 77.2819 100.284C77.2228 100.284 77.1638 100.284 77.0752 100.284C76.3076 100.284 75.5105 100.844 75.5105 101.818V108.96C75.5105 109.963 76.2781 110.76 77.2819 110.76C77.4 110.76 77.5181 110.76 77.6362 110.73C78.3742 110.612 104 106.274 120.946 103.441C121.448 103.353 121.95 103.264 122.423 103.205H122.482C123.397 103.058 123.899 102.084 123.574 101.228C123.545 101.169 123.515 101.08 123.485 101.021C123.397 100.726 123.338 100.431 123.338 100.136C123.338 98.3359 124.873 96.8898 126.763 96.8898C128.563 96.8898 130.04 98.2178 130.187 99.8999C130.187 99.9884 130.187 100.047 130.187 100.136V100.166C130.187 101.08 131.014 101.789 131.9 101.612H131.959C134.232 101.228 135.944 100.933 136.8 100.785C137.479 100.667 138.306 100.284 138.306 99.0146C138.306 98.9556 138.306 98.3949 138.306 97.4801C138.336 93.7322 138.424 83.7577 138.424 79.7738C138.424 78.7114 138.04 77.6786 137.952 77.472C137.952 77.1769 137.597 76.3211 136.859 75.5538ZM80.0866 85.971C81.2084 84.9971 82.8027 83.6987 83.4817 83.1675C83.836 82.8724 84.0722 82.6658 84.1608 82.6068C84.2198 82.5773 84.3969 82.5773 84.4265 82.5773C85.1055 82.8134 85.9026 82.9314 86.6702 82.9314C87.5854 82.9314 88.4711 82.7543 89.2387 82.4592C90.8034 81.81 91.7482 80.6886 91.7482 79.3902C91.7482 78.5934 91.3939 77.8851 90.7444 77.2654C90.6853 77.2064 90.5673 77.0883 90.7149 76.9703C94.1691 74.0488 105.034 64.812 105.299 64.5759C105.476 64.4284 105.772 64.3398 106.126 64.3398C109.964 64.3398 115.869 64.9005 122.216 67.6155C122.275 67.645 122.305 67.704 122.275 67.763C122.068 68.1762 121.98 68.6189 121.98 69.091C121.98 71.1863 124.105 72.8388 126.822 72.8388C127.973 72.8388 129.006 72.5437 129.833 72.0421C129.862 72.0126 129.921 72.0126 129.951 72.0421C131.781 73.3995 133.582 74.9636 135.354 76.7932C135.324 76.9113 135.324 76.8818 135.295 76.9703L134.557 77.1474L117.138 80.0394C117.108 80.0394 117.079 80.0394 117.049 80.0099C116.164 79.4197 115.042 79.0951 113.89 79.0951C113.625 79.0951 113.389 79.1246 113.152 79.1541C111.853 79.3311 110.082 79.7148 109.255 81.3083C109.226 81.3378 109.226 81.3674 109.167 81.3674L80.1751 86.148C80.057 86.1776 79.998 86.03 80.0866 85.971ZM116.223 81.869C116.607 82.1641 117.049 82.6953 117.049 83.4921C117.049 85.1742 115.632 86.5317 113.92 86.5317C112.178 86.5317 110.791 85.1742 110.791 83.4921C110.791 82.9314 110.82 82.8429 110.909 82.5478C111.086 81.9576 111.529 81.3674 113.418 81.1313C113.595 81.1018 113.743 81.1018 113.92 81.1018C114.776 81.1018 115.632 81.3674 116.223 81.869ZM136.387 97.3325C136.387 97.9227 136.387 98.3654 136.387 98.631C136.387 98.69 136.358 98.7195 136.298 98.749C135.472 98.8966 134.114 99.1326 132.342 99.4277C132.283 99.4277 132.224 99.3982 132.224 99.3392C131.87 96.7718 129.597 94.7651 126.851 94.7651C123.869 94.7651 121.419 97.1259 121.419 100.018C121.419 100.402 121.478 100.756 121.537 101.139C121.537 101.198 121.507 101.257 121.448 101.257C121.183 101.316 120.917 101.346 120.651 101.405C103.675 104.267 80.7361 108.133 77.6657 108.665C77.6066 108.665 77.5476 108.635 77.5476 108.546V102.379C77.5476 102.32 77.6066 102.261 77.6657 102.261C79.6142 102.172 81.2084 100.52 81.2084 98.4834C81.2084 96.4472 79.6437 94.7651 77.6657 94.7061C77.6066 94.7061 77.5476 94.647 77.5476 94.588V89.5417C77.5476 88.8335 77.7247 88.745 78.2561 88.5679L108.665 83.4626C108.724 83.5216 108.724 83.5216 108.783 83.5806C108.842 86.2956 111.115 88.5089 113.92 88.5089C116.754 88.5089 119.057 86.2661 119.057 83.4921C119.057 82.7248 118.85 82.1641 118.732 81.9281C118.703 81.869 118.732 81.7805 118.821 81.7805L134.911 79.1246L136.328 78.918C136.387 78.918 136.446 78.9475 136.446 79.0065C136.505 79.2426 136.535 79.4787 136.535 79.7148C136.505 83.6397 136.417 93.5847 136.387 97.3325Z" fill="#323063"/>
<path d="M105.417 77.6785C108.134 77.6785 110.259 76.0259 110.259 73.9307C110.259 71.8354 108.134 70.1829 105.417 70.1829C102.701 70.1829 100.576 71.8354 100.576 73.9307C100.576 76.0259 102.701 77.6785 105.417 77.6785ZM105.417 72.1896C107.1 72.1896 108.281 73.1044 108.281 73.9307C108.281 74.8455 106.953 75.6718 105.417 75.6718C103.912 75.6718 102.554 74.8455 102.554 73.9307C102.554 73.1339 103.735 72.1896 105.417 72.1896Z" fill="#323063"/>
<path d="M95.7042 87.6826C92.7224 87.6826 90.272 90.0434 90.272 92.9354C90.272 95.8274 92.6929 98.1883 95.7042 98.1883C98.686 98.1883 101.136 95.8274 101.136 92.9354C101.136 90.0434 98.686 87.6826 95.7042 87.6826ZM95.7042 96.1816C93.8147 96.1816 92.2795 94.706 92.2795 92.9354C92.2795 91.1353 93.8147 89.6893 95.7042 89.6893C97.5937 89.6893 99.1289 91.1648 99.1289 92.9354C99.1289 94.7355 97.5937 96.1816 95.7042 96.1816Z" fill="#323063"/>
<path d="M103.646 73.5176C103.646 73.0749 103.971 72.6323 104.532 72.2782C103.351 72.5143 102.553 73.252 102.553 73.9308C102.553 74.8456 103.882 75.6719 105.417 75.6719C106.155 75.6719 106.864 75.4653 107.395 75.1702C107.1 75.2292 106.805 75.2587 106.51 75.2587C104.974 75.2587 103.646 74.4619 103.646 73.5176Z" fill="#F3A334"/>
<path d="M77.6066 102.29C77.5476 102.29 77.4885 102.349 77.4885 102.408V108.576C77.4885 108.635 77.5476 108.694 77.6066 108.694C78.0495 108.635 78.8761 108.487 79.998 108.281V101.228C79.4075 101.818 78.5514 102.231 77.6066 102.29Z" fill="#F3A334"/>
<path d="M78.2264 88.5974C77.695 88.7745 77.5178 88.863 77.5178 89.5713V94.588C77.5178 94.6471 77.5769 94.7061 77.6359 94.7061C78.5807 94.7356 79.4368 95.1487 80.0568 95.798V88.3023L78.2264 88.5974Z" fill="#F3A334"/>
<path d="M106.126 64.3989C105.772 64.3989 105.476 64.4874 105.299 64.6349C105.034 64.871 94.1395 74.0783 90.7148 77.0293C90.5672 77.1474 90.6853 77.2654 90.7444 77.3244C91.1282 77.6786 91.4234 78.0622 91.571 78.5048L108.104 64.4579C107.395 64.4284 106.746 64.3989 106.126 64.3989Z" fill="#F3A334"/>
<path d="M84.4265 82.5773C84.397 82.5773 84.2198 82.5478 84.1608 82.6068C84.0722 82.6953 83.836 82.8724 83.4817 83.1675C82.8027 83.7282 81.2085 85.0266 80.0866 85.971C79.998 86.03 80.0571 86.1775 80.1752 86.1775L83.0979 85.7054L86.375 82.9314C85.696 82.9019 85.0169 82.7838 84.4265 82.5773Z" fill="#F3A334"/>
</g>
<g clip-path="url(#clip2)">
<path d="M61.4777 16.1298L60.3302 16.9866L47.4494 26.9881C47.3974 27.0162 47.3877 27.1222 47.4418 27.16C47.6581 27.3113 48.107 27.7058 48.4725 28.3804C49.7942 30.8192 48.8383 33.8883 46.3464 35.2387C43.8806 36.575 40.8274 35.7123 39.4819 33.3534C39.4018 33.3297 39.4018 33.3297 39.3218 33.3059L15.0332 52.3091C14.6504 52.718 14.5368 52.8802 14.8743 53.5029L17.2646 57.9136C17.2927 57.9655 17.3727 57.9893 17.4246 57.9612C19.18 57.1106 21.369 57.8039 22.3392 59.5942C23.3094 61.3844 22.7352 63.6088 21.0242 64.6032C20.9723 64.6313 20.9485 64.7113 20.9766 64.7632L23.9153 70.1858C23.9434 70.2377 24.0235 70.2614 24.0754 70.2333C26.5217 68.3034 44.822 53.9887 58.409 43.3696C58.6145 43.1911 58.8341 43.0386 59.0396 42.8601C59.0915 42.8319 59.0893 42.766 59.0612 42.7141C58.8146 42.4449 58.6058 42.1217 58.423 41.7844C57.0451 39.2418 58.0487 36.0127 60.6962 34.5779C63.1102 33.2697 66.0509 33.9249 67.5997 36.0393C67.6278 36.0912 67.7079 36.1149 67.7457 36.0608C69.1625 34.9574 70.244 34.1027 70.9005 33.5791C70.9524 33.551 70.9502 33.4851 70.9221 33.4332C70.7956 33.1997 70.5847 32.8105 70.3035 32.2916C68.5437 28.9824 63.8831 20.1967 61.9849 16.694C61.8724 16.4865 61.734 16.293 61.5696 16.1135C61.5955 16.0995 61.5296 16.1017 61.4777 16.1298Z" fill="#FFC964"/>
<path d="M15.5933 49.2533L38.7906 31.2106C38.8166 31.1966 38.8285 31.1565 38.8404 31.1165C38.8338 29.3075 40.1825 28.1403 41.2402 27.3657C41.4338 27.2272 41.6533 27.0747 41.861 26.9622C42.8733 26.4136 44.0143 26.1644 45.0742 26.2613C45.1142 26.2732 45.1402 26.2591 45.1662 26.2451L59.1025 15.403L59.6692 14.9617C59.6389 14.8438 59.653 14.8698 59.6368 14.7779C57.2336 13.9992 54.8791 13.4962 52.623 13.1749C52.583 13.163 52.531 13.1911 52.5191 13.2311C52.0314 14.0661 51.2635 14.8179 50.2512 15.3665C47.8632 16.6606 45.207 16.2205 44.2087 14.3783C43.9837 13.9632 43.8766 13.5178 43.8355 13.0701C43.8333 13.0042 43.7792 12.9664 43.7133 12.9685C36.865 13.5919 31.4066 15.9122 28.0063 17.755C27.6948 17.9238 27.4774 18.1423 27.392 18.3564C27.2708 18.6906 22.0798 31.9762 20.475 36.2024C20.4014 36.3765 20.5615 36.4241 20.6415 36.4478C21.4938 36.6573 22.1568 37.1371 22.5364 37.8376C23.141 38.9533 22.8588 40.4153 21.7784 41.7057C21.2441 42.3309 20.5238 42.9226 19.7451 43.3446C19.0703 43.7103 18.3132 43.9863 17.6037 44.1023C17.5778 44.1164 17.408 44.1748 17.3842 44.2549C17.3485 44.3749 17.2252 44.6431 17.0543 45.0714C16.7245 45.8879 15.9415 47.7891 15.4051 49.1538C15.3813 49.2339 15.5035 49.3355 15.5933 49.2533ZM30.1933 23.2157C32.5813 21.9216 35.2375 22.3617 36.2359 24.2038C37.2342 26.0459 36.1527 28.5117 33.7647 29.8058C31.3767 31.1 28.7204 30.6598 27.7221 28.8177C26.7238 26.9756 27.8053 24.5098 30.1933 23.2157Z" fill="#FFE183"/>
<path d="M30.9197 44.9416C29.2584 45.8419 28.6117 47.8707 29.4554 49.4274C30.3131 51.01 32.3518 51.5499 34.013 50.6496C35.6742 49.7493 36.3209 47.7206 35.4773 46.1639C34.6336 44.6072 32.5809 44.0414 30.9197 44.9416Z" fill="#F3A334"/>
<path d="M30.7152 48.7781C29.97 47.403 30.3896 45.6987 31.5846 44.6819C31.3489 44.7425 31.1412 44.8551 30.9336 44.9676C29.2723 45.8679 28.6256 47.8966 29.4693 49.4533C30.327 51.036 32.3657 51.5758 34.0269 50.6756C34.2346 50.563 34.4282 50.4246 34.6218 50.2861C33.0914 50.7462 31.4604 50.1532 30.7152 48.7781Z" fill="#E87E04"/>
<path d="M42.8312 28.7523C42.6755 28.8367 42.5457 28.907 42.404 29.0174C40.8553 30.1252 40.7472 30.8551 40.8726 31.4584C40.9354 31.7601 40.9516 31.852 41.2188 32.345C42.0202 33.8238 43.9129 34.3421 45.4184 33.5263C46.9498 32.6963 47.523 30.8417 46.7215 29.3628C46.3419 28.6623 45.6994 28.4063 45.2214 28.3297C44.4892 28.1559 43.6099 28.3303 42.8312 28.7523Z" fill="#FFC964"/>
<path d="M42.4562 31.406C42.0766 30.7054 41.9846 29.9161 42.1587 29.184C40.8577 30.1912 40.7474 30.8552 40.8588 31.4325C40.9215 31.7342 40.9377 31.8261 41.2049 32.3191C42.0063 33.7979 43.8991 34.3162 45.4045 33.5003C45.6901 33.3456 45.9215 33.153 46.127 32.9746C44.6983 33.3125 43.1592 32.7032 42.4562 31.406Z" fill="#F3A334"/>
<path d="M32.8085 28.0416C34.1323 27.3242 34.9326 25.9506 34.4967 25.1463C34.103 24.4198 32.6289 24.1782 31.1494 24.98C29.6699 25.7818 29.0675 27.1488 29.4612 27.8753C29.8971 28.6796 31.4588 28.773 32.8085 28.0416Z" fill="#FFC964"/>
<path d="M60.3819 12.9307C57.9787 12.152 55.5561 11.5853 53.088 11.2446C52.73 11.2036 52.398 11.1486 52.04 11.1077C51.576 11.057 51.1629 11.348 51.0061 11.8022C50.8731 12.1764 50.5962 12.595 50.2512 12.9498C49.9819 13.1964 49.6726 13.4312 49.3092 13.6281C47.9854 14.3455 46.3977 14.2661 45.9618 13.4618C45.8634 13.2802 45.831 13.0964 45.8364 12.8585C45.8656 12.5406 45.9867 12.2064 46.1997 11.856C46.4766 11.4374 46.1413 10.8807 45.6135 10.8982C45.2177 10.9113 44.7959 10.9385 44.3741 10.9657C42.503 11.107 40.6222 11.3543 38.7198 11.7475C34.6792 12.5947 30.7241 14.0332 27.0902 16.0026C26.3634 16.3964 25.801 16.9697 25.5588 17.638C25.4496 17.9322 19.4561 33.3309 18.2741 36.3546C18.1649 36.6488 18.0957 36.9548 18.0903 37.1927C18.0859 37.8663 18.6689 38.3224 19.3286 38.3005C20.0403 38.2505 20.5508 38.5109 20.7336 38.8482C20.9304 39.2114 20.7898 39.7575 20.2556 40.3827C19.8608 40.8316 19.372 41.2308 18.8009 41.5403C18.3078 41.8075 17.7724 41.997 17.2609 42.1064C17.2609 42.1064 16.7871 42.1617 16.4757 42.3305C16.0604 42.5556 15.7435 42.9623 15.5229 43.4846C15.4731 43.5787 15.3639 43.8728 15.2049 44.2611C13.9591 47.353 13.0928 49.5342 12.9566 50.2123C12.7727 51.0503 12.7403 51.6721 12.7209 51.884C12.6538 52.256 12.5749 53.4736 13.3623 54.9265L15.8089 59.441C16.301 60.3491 17.1229 60.4407 17.7459 60.1031C17.8757 60.0327 17.9655 59.9505 18.0174 59.9224L18.0433 59.9083C18.0952 59.8802 18.1731 59.838 18.225 59.8099C19.0297 59.3738 20.0842 59.7086 20.5622 60.5907C21.0403 61.4729 20.7451 62.5391 19.9404 62.9752C19.8885 63.0033 19.8366 63.0315 19.7847 63.0596C19.7328 63.0877 19.6809 63.1159 19.603 63.1581C18.9281 63.5238 18.4945 64.3966 18.9585 65.2528L22.3611 71.5315C22.8392 72.4137 23.8937 72.7485 24.7762 72.2702C24.8801 72.2139 24.9839 72.1577 25.0737 72.0754C25.6663 71.62 46.1296 55.5961 59.6788 45.0311C60.0779 44.7141 60.4769 44.3971 60.8641 44.1202L60.916 44.092C61.6504 43.5262 61.6276 42.4309 60.9344 41.8332C60.8803 41.7954 60.8121 41.7316 60.7581 41.6938C60.5396 41.4765 60.3471 41.2452 60.2065 40.9858C59.3488 39.4031 60.0095 37.4003 61.6707 36.5C63.2541 35.642 65.1846 36.1062 66.1159 37.5147C66.158 37.5926 66.1862 37.6444 66.2284 37.7223L66.2424 37.7482C66.6783 38.5525 67.7425 38.7814 68.4369 38.2037L68.4888 38.1755C70.3046 36.7551 71.6695 35.6798 72.3519 35.1421C72.8927 34.7148 73.4367 33.9837 72.8321 32.868C72.804 32.8161 72.5368 32.3232 72.1009 31.5189C70.3412 28.2097 65.6665 19.398 63.7683 15.8954C63.2621 14.9613 62.4326 14.2361 62.2563 14.0967C62.1157 13.8372 61.3964 13.2536 60.3819 12.9307ZM15.4311 49.1398C15.9534 47.749 16.7364 45.8478 17.0803 45.0573C17.2512 44.629 17.3604 44.3349 17.4102 44.2408C17.448 44.1867 17.6038 44.1023 17.6297 44.0882C18.3392 43.9723 19.0963 43.6962 19.7711 43.3305C20.5758 42.8944 21.2701 42.3168 21.8044 41.6916C22.8707 40.3752 23.167 38.9392 22.5484 37.7976C22.1687 37.0971 21.5198 36.6432 20.6535 36.4078C20.5734 36.384 20.4134 36.3365 20.4869 36.1624C22.1318 31.948 27.2828 18.6505 27.4039 18.3164C27.4893 18.1023 27.7067 17.8837 28.0182 17.7149C31.3925 15.8863 36.851 13.5659 43.7252 12.9285C43.7912 12.9263 43.8453 12.9642 43.8474 13.0301C43.8626 13.4918 43.9956 13.9232 44.2206 14.3383C45.2189 16.1804 47.8752 16.6206 50.2632 15.3264C51.2755 14.7778 52.0433 14.026 52.5311 13.1911C52.543 13.1511 52.5949 13.123 52.6349 13.1348C54.891 13.4562 57.2196 13.9732 59.6487 14.7378C59.679 14.8557 59.6649 14.8297 59.6812 14.9216L59.1166 15.429L45.1803 26.271C45.1543 26.2851 45.1283 26.2991 45.0883 26.2872C44.0284 26.1903 42.8874 26.4395 41.8751 26.9881C41.6415 27.1147 41.4479 27.2532 41.2543 27.3916C40.1966 28.1662 38.822 29.3475 38.8545 31.1425C38.8426 31.1825 38.8567 31.2084 38.8047 31.2365L15.5933 49.2532C15.5036 49.3354 15.3814 49.2338 15.4311 49.1398ZM45.2474 28.3157C45.7254 28.3923 46.3678 28.6483 46.7475 29.3488C47.5489 30.8277 46.9498 32.6964 45.4444 33.5122C43.9129 34.3422 42.0462 33.8098 41.2447 32.3309C40.9776 31.838 40.9613 31.7461 40.8986 31.4444C40.7731 30.8411 40.8813 30.1112 42.43 29.0034C42.5717 28.893 42.7014 28.8227 42.8572 28.7383C43.6099 28.3304 44.4892 28.1559 45.2474 28.3157ZM70.3434 32.3035C70.6247 32.8224 70.8356 33.2115 70.9621 33.4451C70.9902 33.4969 70.9783 33.537 70.9405 33.591C70.284 34.1146 69.2025 34.9693 67.7857 36.0727C67.7338 36.1009 67.6678 36.103 67.6397 36.0512C66.105 33.9627 63.1502 33.2816 60.7362 34.5898C58.1146 36.0105 57.0851 39.2537 58.463 41.7963C58.6458 42.1336 58.8665 42.4168 59.1012 42.726C59.1293 42.7779 59.1315 42.8438 59.0796 42.872C58.8741 43.0504 58.6545 43.203 58.449 43.3815C44.888 53.9866 26.5617 68.3152 24.1154 70.2452C24.0634 70.2733 23.9975 70.2755 23.9553 70.1977L21.0166 64.7751C20.9885 64.7232 21.0123 64.6432 21.0642 64.6151C22.7351 63.6088 23.3494 61.3963 22.3792 59.606C21.409 57.8158 19.2318 57.0825 17.4646 57.973C17.4127 58.0012 17.3327 57.9774 17.3046 57.9255L14.9002 53.4889C14.5627 52.8662 14.6763 52.704 15.0591 52.2951L39.3618 33.3178C39.4418 33.3416 39.4418 33.3416 39.5219 33.3653C40.8674 35.7242 43.9206 36.5869 46.3864 35.2506C48.8782 33.9002 49.8342 30.8311 48.5125 28.3923C48.1469 27.7177 47.6981 27.3232 47.4818 27.1719C47.4277 27.1341 47.4115 27.0422 47.4894 27L60.3702 16.9985L61.5176 16.1417C61.5696 16.1136 61.6355 16.1114 61.6637 16.1633C61.8281 16.3427 61.9665 16.5362 62.079 16.7437C63.9231 20.2085 68.5837 28.9943 70.3434 32.3035Z" fill="#323063"/>
<path d="M33.7509 29.7797C36.1389 28.4856 37.2204 26.0198 36.222 24.1777C35.2237 22.3356 32.5675 21.8955 30.1795 23.1896C27.7915 24.4837 26.71 26.9495 27.7083 28.7916C28.7066 30.6337 31.3629 31.0739 33.7509 29.7797ZM31.1356 24.9539C32.6151 24.1521 34.0893 24.3937 34.483 25.1202C34.9188 25.9245 34.1445 27.284 32.7948 28.0154C31.471 28.7328 29.8833 28.6534 29.4474 27.8491C29.0678 27.1486 29.6561 25.7557 31.1356 24.9539Z" fill="#323063"/>
<path d="M29.9777 43.2033C27.356 44.624 26.3265 47.8672 27.7045 50.4098C29.0824 52.9525 32.3357 53.8746 34.9833 52.4398C37.6049 51.0191 38.6344 47.7759 37.2565 45.2332C35.8785 42.6906 32.5993 41.7825 29.9777 43.2033ZM34.0271 50.6755C32.3659 51.5758 30.3131 51.01 29.4695 49.4533C28.6118 47.8706 29.2726 45.8678 30.9338 44.9675C32.595 44.0673 34.6478 44.6331 35.4914 46.1898C36.3491 47.7724 35.6884 49.7752 34.0271 50.6755Z" fill="#323063"/>
<path d="M30.2106 26.9656C29.9997 26.5764 30.0743 26.0325 30.3988 25.4539C29.473 26.2241 29.1237 27.2526 29.4471 27.8493C29.8829 28.6536 31.4447 28.7471 32.7944 28.0156C33.4433 27.6639 33.9679 27.1447 34.2945 26.6321C34.063 26.8246 33.8175 26.9912 33.558 27.1319C32.2082 27.8634 30.6606 27.7958 30.2106 26.9656Z" fill="#F3A334"/>
<path d="M21.0265 64.6691C20.9746 64.6973 20.9508 64.7773 20.9789 64.8292L23.9176 70.2518C23.9457 70.3037 24.0258 70.3274 24.0777 70.2993C24.4389 70.0364 25.0954 69.5128 25.9833 68.7967L22.6228 62.5957C22.3849 63.396 21.829 64.1671 21.0265 64.6691Z" fill="#F3A334"/>
<path d="M15.0473 52.3352C14.6644 52.744 14.5508 52.9063 14.8883 53.529L17.2786 57.9397C17.3067 57.9916 17.3868 58.0153 17.4387 57.9872C18.2834 57.563 19.2329 57.5183 20.0874 57.7937L16.5159 51.2036L15.0473 52.3352Z" fill="#F3A334"/>
<path d="M28.0465 17.7668C27.735 17.9356 27.5177 18.1541 27.4322 18.3682C27.3111 18.7024 22.1201 31.988 20.5152 36.2142C20.4417 36.3884 20.6018 36.4359 20.6818 36.4596C21.188 36.5881 21.6303 36.7847 21.971 37.1036L29.8137 16.8762C29.1767 17.1879 28.5916 17.4714 28.0465 17.7668Z" fill="#F3A334"/>
<path d="M17.6298 44.0883C17.6038 44.1023 17.434 44.1608 17.4103 44.2408C17.3746 44.3608 17.2513 44.629 17.0804 45.0573C16.7506 45.8738 15.9676 47.775 15.4312 49.1398C15.3814 49.2339 15.5037 49.3355 15.6075 49.2792L17.9522 47.4715L19.5117 43.4712C18.9006 43.7688 18.2474 43.9885 17.6298 44.0883Z" fill="#F3A334"/>
</g>
<g clip-path="url(#clip3)">
<path d="M125.105 149.209L125.631 147.881L131.335 132.644C131.365 132.593 131.317 132.498 131.25 132.493C130.985 132.476 130.393 132.372 129.722 131.985C127.3 130.586 126.489 127.466 127.902 125.018C129.301 122.596 132.368 121.749 134.768 123.067C134.849 123.045 134.849 123.045 134.93 123.024L145.609 94.1703C145.72 93.622 145.731 93.4243 145.112 93.0672L140.73 90.5374C140.679 90.5076 140.598 90.5289 140.568 90.5799C139.519 92.2182 137.281 92.7618 135.503 91.735C133.724 90.7082 133.035 88.5085 133.97 86.7703C133.999 86.7193 133.977 86.6385 133.926 86.6087L128.539 83.4986C128.487 83.4688 128.406 83.49 128.377 83.541C127.31 86.4608 119.262 108.198 113.282 124.329C113.201 124.589 113.094 124.833 113.013 125.092C112.984 125.143 113.021 125.198 113.072 125.228C113.426 125.33 113.776 125.498 114.111 125.692C116.637 127.15 117.491 130.431 115.99 133.032C114.621 135.404 111.76 136.37 109.315 135.367C109.264 135.337 109.183 135.358 109.179 135.424C108.553 137.103 108.082 138.395 107.799 139.183C107.77 139.234 107.806 139.29 107.858 139.319C108.09 139.453 108.476 139.677 108.992 139.974C112.251 141.89 120.893 146.981 124.372 148.99C124.579 149.109 124.799 149.203 125.035 149.271C125.02 149.296 125.076 149.26 125.105 149.209Z" fill="#FFC964"/>
<path d="M146.751 97.0735L136.495 124.54C136.481 124.565 136.492 124.606 136.503 124.646C137.468 126.189 136.934 127.887 136.441 129.098C136.349 129.317 136.242 129.562 136.125 129.766C135.55 130.76 134.707 131.565 133.75 132.033C133.71 132.043 133.695 132.069 133.68 132.094L127.52 148.597L127.27 149.269C127.358 149.354 127.333 149.339 127.395 149.409C129.862 148.827 132.141 148.035 134.239 147.139C134.28 147.128 134.309 147.077 134.298 147.037C134.272 146.07 134.53 145.028 135.104 144.034C136.458 141.688 138.962 140.685 140.792 141.742C141.204 141.98 141.532 142.305 141.804 142.667C141.841 142.722 141.907 142.726 141.963 142.69C147.484 138.602 150.919 133.785 152.847 130.444C153.024 130.139 153.094 129.839 153.053 129.611C152.98 129.263 150.37 115.211 149.5 110.765C149.471 110.578 149.309 110.62 149.228 110.641C148.389 110.905 147.568 110.839 146.872 110.437C145.763 109.797 145.229 108.401 145.468 106.737C145.593 105.925 145.895 105.045 146.337 104.28C146.719 103.617 147.22 102.988 147.765 102.521C147.78 102.495 147.894 102.357 147.872 102.276C147.838 102.155 147.802 101.862 147.72 101.407C147.569 100.538 147.23 98.506 146.965 97.0608C146.943 96.98 146.784 96.9566 146.751 97.0735ZM148.082 126.912C146.728 129.257 144.225 130.26 142.394 129.204C140.564 128.147 140.181 125.478 141.535 123.132C142.89 120.786 145.393 119.783 147.223 120.84C149.053 121.896 149.437 124.566 148.082 126.912Z" fill="#FFE183"/>
<path d="M135.94 108.715C136.883 107.083 136.359 105.013 134.813 104.121C133.241 103.213 131.212 103.81 130.27 105.442C129.328 107.074 129.851 109.144 131.397 110.036C132.944 110.929 134.998 110.347 135.94 108.715Z" fill="#F3A334"/>
<path d="M134.08 105.33C135.446 106.118 135.992 107.793 135.51 109.283C135.679 109.109 135.797 108.905 135.915 108.701C136.857 107.069 136.334 104.998 134.787 104.106C133.215 103.198 131.186 103.795 130.244 105.427C130.126 105.631 130.034 105.85 129.942 106.068C131.006 104.881 132.714 104.541 134.08 105.33Z" fill="#E87E04"/>
<path d="M134.346 128.739C134.435 128.586 134.508 128.458 134.571 128.29C135.307 126.539 135.012 125.859 134.585 125.409C134.371 125.183 134.309 125.113 133.819 124.831C132.35 123.982 130.457 124.522 129.604 126.001C128.735 127.505 129.229 129.388 130.698 130.236C131.394 130.638 132.079 130.524 132.528 130.341C133.246 130.109 133.905 129.504 134.346 128.739Z" fill="#FFC964"/>
<path d="M133.259 126.276C133.955 126.677 134.452 127.304 134.692 128.021C135.27 126.484 135.012 125.859 134.61 125.424C134.397 125.198 134.334 125.128 133.845 124.845C132.375 123.997 130.483 124.537 129.629 126.016C129.467 126.296 129.372 126.581 129.291 126.84C130.332 125.81 131.971 125.531 133.259 126.276Z" fill="#F3A334"/>
<path d="M143.288 124.144C142.537 125.444 142.582 127.034 143.381 127.495C144.103 127.912 145.491 127.353 146.33 125.9C147.169 124.446 146.959 122.965 146.237 122.548C145.438 122.087 144.054 122.818 143.288 124.144Z" fill="#FFC964"/>
<path d="M127.738 151.375C130.205 150.793 132.576 150.02 134.865 149.03C135.193 148.879 135.506 148.754 135.834 148.603C136.257 148.406 136.456 147.942 136.349 147.473C136.264 147.084 136.279 146.582 136.385 146.1C136.485 145.749 136.625 145.388 136.831 145.031C137.582 143.731 138.98 142.974 139.78 143.436C139.96 143.54 140.085 143.68 140.207 143.886C140.35 144.173 140.424 144.522 140.428 144.932C140.413 145.433 140.995 145.735 141.437 145.446C141.768 145.23 142.114 144.987 142.46 144.745C143.984 143.653 145.46 142.465 146.877 141.142C149.881 138.32 152.498 135.037 154.559 131.467C154.972 130.753 155.148 129.971 155.001 129.274C154.938 128.966 151.894 112.69 151.301 109.492C151.238 109.184 151.135 108.886 151.013 108.68C150.66 108.102 149.92 108.015 149.368 108.376C148.786 108.788 148.212 108.83 147.876 108.637C147.516 108.429 147.346 107.889 147.471 107.077C147.57 106.488 147.777 105.893 148.1 105.332C148.38 104.848 148.737 104.408 149.116 104.049C149.116 104.049 149.492 103.756 149.669 103.45C149.904 103.042 149.959 102.53 149.871 101.968C149.863 101.862 149.801 101.554 149.731 101.14C149.156 97.8497 148.739 95.5352 148.496 94.8849C148.209 94.073 147.907 93.5247 147.811 93.3334C147.671 92.9806 147.093 91.8987 145.649 91.0654L141.165 88.476C140.262 87.9552 139.511 88.3036 139.158 88.9156C139.084 89.0431 139.051 89.1599 139.022 89.2109L139.007 89.2364C138.978 89.2874 138.934 89.3639 138.904 89.4149C138.448 90.2054 137.369 90.4666 136.493 89.9607C135.616 89.4547 135.303 88.3899 135.76 87.5994C135.789 87.5484 135.818 87.4974 135.848 87.4464C135.877 87.3954 135.907 87.3444 135.951 87.2679C136.334 86.6049 136.241 85.6337 135.391 85.1426L129.153 81.5414C128.277 81.0354 127.198 81.2966 126.698 82.1636C126.639 82.2656 126.58 82.3676 126.547 82.4845C126.282 83.1815 117.292 107.503 111.316 123.568C111.143 124.046 110.97 124.524 110.786 124.962L110.756 125.013C110.429 125.878 111.029 126.803 111.939 126.954C112.005 126.958 112.097 126.977 112.163 126.981C112.465 127.054 112.752 127.151 113.01 127.3C114.582 128.208 115.08 130.263 114.138 131.895C113.24 133.451 111.344 134.056 109.801 133.335C109.723 133.291 109.672 133.261 109.595 133.216L109.569 133.201C108.77 132.74 107.739 133.097 107.452 133.951L107.422 134.002C106.624 136.159 106.028 137.787 105.73 138.601C105.494 139.247 105.417 140.154 106.525 140.794C106.577 140.824 107.067 141.107 107.866 141.568C111.124 143.483 119.792 148.59 123.272 150.599C124.2 151.134 125.293 151.324 125.518 151.351C125.776 151.5 126.7 151.626 127.738 151.375ZM146.95 97.0863C147.241 98.5464 147.58 100.578 147.706 101.432C147.787 101.887 147.849 102.195 147.857 102.302C147.853 102.368 147.765 102.521 147.75 102.546C147.205 103.014 146.705 103.642 146.322 104.305C145.866 105.096 145.579 105.95 145.454 106.762C145.24 108.441 145.749 109.822 146.883 110.477C147.579 110.879 148.374 110.93 149.239 110.682C149.32 110.66 149.482 110.618 149.512 110.805C150.341 115.262 152.991 129.303 153.064 129.652C153.105 129.879 153.035 130.179 152.858 130.485C150.944 133.8 147.51 138.617 141.974 142.73C141.918 142.766 141.852 142.762 141.815 142.707C141.558 142.32 141.215 142.02 140.803 141.782C138.973 140.726 136.469 141.728 135.115 144.074C134.541 145.069 134.283 146.11 134.309 147.077C134.32 147.117 134.291 147.168 134.25 147.179C132.152 148.076 129.888 148.842 127.406 149.45C127.318 149.365 127.344 149.379 127.281 149.309L127.494 148.583L133.655 132.079C133.669 132.054 133.684 132.028 133.725 132.018C134.682 131.55 135.525 130.745 136.099 129.751C136.231 129.521 136.323 129.302 136.415 129.083C136.908 127.872 137.457 126.149 136.477 124.631C136.466 124.591 136.44 124.576 136.47 124.525L146.751 97.0735C146.784 96.9566 146.943 96.98 146.95 97.0863ZM132.513 130.366C132.064 130.549 131.379 130.664 130.683 130.262C129.214 129.414 128.735 127.505 129.589 126.026C130.457 124.522 132.335 124.008 133.804 124.856C134.294 125.139 134.357 125.209 134.57 125.434C134.997 125.885 135.292 126.565 134.556 128.316C134.493 128.484 134.42 128.611 134.331 128.764C133.904 129.504 133.246 130.109 132.513 130.366ZM108.952 139.985C108.436 139.687 108.049 139.464 107.817 139.33C107.766 139.3 107.755 139.26 107.758 139.194C108.042 138.406 108.513 137.114 109.138 135.435C109.168 135.384 109.223 135.348 109.275 135.377C111.694 136.366 114.58 135.415 115.949 133.043C117.436 130.468 116.596 127.161 114.07 125.702C113.735 125.509 113.396 125.381 113.032 125.239C112.98 125.209 112.943 125.154 112.973 125.103C113.054 124.844 113.161 124.599 113.242 124.34C119.207 108.234 127.269 86.4715 128.336 83.5517C128.366 83.5007 128.421 83.4645 128.498 83.5092L133.885 86.6194C133.937 86.6491 133.959 86.7299 133.93 86.7809C133.035 88.5085 133.684 90.7188 135.462 91.7456C137.241 92.7724 139.49 92.2692 140.528 90.5905C140.557 90.5395 140.638 90.5183 140.69 90.548L145.098 93.0927C145.716 93.4499 145.705 93.6475 145.595 94.1958L134.89 123.035C134.809 123.056 134.809 123.056 134.728 123.077C132.327 121.759 129.26 122.607 127.862 125.029C126.449 127.477 127.259 130.597 129.682 131.996C130.352 132.383 130.945 132.487 131.21 132.504C131.276 132.508 131.339 132.578 131.295 132.655L125.591 147.892L125.065 149.22C125.035 149.271 124.98 149.307 124.928 149.277C124.693 149.209 124.472 149.115 124.266 148.996C120.852 146.992 112.21 141.9 108.952 139.985Z" fill="#323063"/>
<path d="M141.561 123.147C140.207 125.493 140.59 128.162 142.42 129.219C144.25 130.275 146.754 129.273 148.108 126.927C149.463 124.581 149.079 121.911 147.249 120.855C145.419 119.798 142.916 120.801 141.561 123.147ZM146.356 125.915C145.516 127.368 144.128 127.927 143.407 127.51C142.608 127.049 142.549 125.485 143.314 124.159C144.065 122.858 145.464 122.102 146.263 122.563C146.959 122.965 147.195 124.461 146.356 125.915Z" fill="#323063"/>
<path d="M137.667 109.712C139.154 107.137 138.314 103.83 135.788 102.372C133.262 100.913 129.993 101.814 128.491 104.415C127.004 106.99 127.844 110.297 130.37 111.756C132.896 113.214 136.18 112.288 137.667 109.712ZM130.244 105.427C131.186 103.795 133.24 103.213 134.787 104.106C136.359 105.013 136.857 107.069 135.914 108.701C134.972 110.333 132.918 110.914 131.371 110.022C129.799 109.114 129.302 107.059 130.244 105.427Z" fill="#323063"/>
<path d="M146.079 123.715C146.466 123.938 146.69 124.442 146.72 125.105C147.103 123.966 146.856 122.905 146.263 122.563C145.464 122.102 144.08 122.832 143.314 124.158C142.946 124.796 142.773 125.512 142.766 126.12C142.862 125.835 142.983 125.565 143.13 125.31C143.896 123.984 145.254 123.239 146.079 123.715Z" fill="#F3A334"/>
<path d="M133.933 86.7151C133.963 86.6641 133.941 86.5833 133.889 86.5536L128.502 83.4434C128.451 83.4136 128.37 83.4348 128.34 83.4858C128.171 83.8981 127.888 84.6865 127.509 85.7596L133.669 89.3163C133.448 88.5087 133.514 87.5608 133.933 86.7151Z" fill="#F3A334"/>
<path d="M145.584 94.1556C145.694 93.6073 145.705 93.4096 145.086 93.0525L140.705 90.5227C140.653 90.4929 140.572 90.5141 140.543 90.5651C140.046 91.3663 139.258 91.8974 138.382 92.1055L144.929 95.8853L145.584 94.1556Z" fill="#F3A334"/>
<path d="M152.807 130.455C152.983 130.149 153.053 129.85 153.013 129.622C152.939 129.274 150.33 115.221 149.46 110.775C149.431 110.588 149.269 110.631 149.188 110.652C148.687 110.805 148.205 110.866 147.744 110.771L151.769 132.134C152.148 131.537 152.498 130.991 152.807 130.455Z" fill="#F3A334"/>
<path d="M147.75 102.546C147.765 102.521 147.879 102.382 147.857 102.302C147.824 102.181 147.787 101.887 147.706 101.432C147.555 100.563 147.216 98.5315 146.95 97.0863C146.943 96.98 146.785 96.9566 146.726 97.0586L145.681 99.8212L146.469 104.05C146.834 103.479 147.275 102.952 147.75 102.546Z" fill="#F3A334"/>
</g>
<path d="M71.6138 74.2628C71.0475 74.2628 70.4663 74.0396 70.0341 73.6081C69.1698 72.7451 69.1698 71.3317 70.0341 70.4538C71.122 69.3677 71.122 67.612 70.0341 66.5259C68.678 65.1719 67.918 63.3567 67.918 61.4225C67.918 59.4883 68.678 57.6731 70.0341 56.3042C70.8985 55.4413 72.3143 55.4413 73.1935 56.3042C74.0728 57.1672 74.0579 58.5807 73.1935 59.4585C72.6719 59.9793 72.3888 60.6786 72.3888 61.4225C72.3888 62.1664 72.6719 62.8657 73.2084 63.3865C76.0399 66.2134 76.0399 70.796 73.2084 73.623C72.7613 74.0545 72.195 74.2628 71.6138 74.2628Z" fill="#FDBF00"/>
<path d="M119.363 49.3417C118.797 49.3417 118.216 49.1185 117.784 48.6871C116.919 47.8241 116.919 46.4106 117.784 45.5328C118.365 44.9525 118.365 44.0152 117.784 43.4349C116.666 42.319 116.04 40.8163 116.04 39.2391C116.04 37.662 116.666 36.1592 117.784 35.0433C118.648 34.1804 120.064 34.1804 120.943 35.0433C121.807 35.9063 121.807 37.3198 120.943 38.1976C120.66 38.4803 120.511 38.8523 120.511 39.2391C120.511 39.626 120.66 40.0128 120.943 40.2806C123.268 42.6017 123.268 46.366 120.943 48.6722C120.511 49.1185 119.945 49.3417 119.363 49.3417Z" fill="#FDBF00"/>
<path d="M158.12 93.8812C157.554 93.8812 156.973 93.658 156.541 93.2265C155.676 92.3636 155.676 90.9501 156.541 90.0723C157.062 89.5515 157.36 88.8522 157.36 88.1083C157.36 87.3643 157.077 86.665 156.541 86.1443C153.709 83.3173 153.709 78.7347 156.541 75.9078C157.405 75.0448 158.821 75.0448 159.7 75.9078C160.579 76.7707 160.564 78.1842 159.7 79.0621C158.612 80.1482 158.612 81.9039 159.7 82.99C161.071 84.3589 161.816 86.1741 161.816 88.1083C161.816 90.0425 161.056 91.8577 159.7 93.2265C159.268 93.658 158.702 93.8812 158.12 93.8812Z" fill="#FF9F00"/>
<defs>
<clipPath id="clip0">
<rect width="62.8049" height="48.6915" fill="white" transform="translate(86.8567 86.3552)"/>
</clipPath>
<clipPath id="clip1">
<rect width="62.9727" height="48.2791" fill="white" transform="translate(75.5105 62.3922)"/>
</clipPath>
<clipPath id="clip2">
<rect width="62.9727" height="48.2791" fill="white" transform="translate(0.17334 30.5898) rotate(-28.4548)"/>
</clipPath>
<clipPath id="clip3">
<rect width="62.8049" height="48.6915" fill="white" transform="translate(169.826 105.024) rotate(120)"/>
</clipPath>
</defs>
</svg>
