<svg width="187" height="152" viewBox="0 0 187 152" fill="none" xmlns="http://www.w3.org/2000/svg">
<path d="M51.383 75.4686C51.383 74.8655 51.8697 74.3986 52.4537 74.3986H101.218C101.218 61.2466 78.9091 50.5849 51.383 50.5849C23.8569 50.5849 1.54785 61.2466 1.54785 74.3986C1.54785 87.5505 23.8569 98.2122 51.383 98.2122V75.4686Z" fill="#FFE183"/>
<path d="M52.3563 99.1851H51.3829C37.9313 99.1851 25.2584 96.6754 15.7197 92.1228C5.94731 87.4534 0.574463 81.1498 0.574463 74.3987C0.574463 67.6476 5.94731 61.344 15.7197 56.6747C25.2584 52.1221 37.9313 49.6123 51.3829 49.6123C64.8345 49.6123 77.5074 52.1221 87.0462 56.6747C96.8186 61.344 102.191 67.6282 102.191 74.3987V75.3715H52.4536C52.3952 75.3715 52.3563 75.4104 52.3563 75.4688V99.1851ZM51.3829 51.5579C38.2233 51.5579 25.8424 54.0093 16.5567 58.4451C7.50466 62.7643 2.52115 68.4259 2.52115 74.3987C2.52115 80.3716 7.50466 86.0332 16.5567 90.3718C25.6088 94.6909 37.6004 97.1229 50.4096 97.2396V75.4688C50.4096 74.3404 51.3245 73.4259 52.4536 73.4259H100.186C99.6802 67.8227 94.7551 62.5308 86.1897 58.4451C76.9234 54.0093 64.5425 51.5579 51.3829 51.5579Z" fill="#323063"/>
<path d="M1.54785 74.3987V94.9243C1.54785 107.746 22.7667 118.213 49.3584 118.718C50.468 118.738 51.383 117.843 51.383 116.715V98.2123C23.8569 98.2123 1.54785 87.5506 1.54785 74.3987Z" fill="#FFC964"/>
<path d="M49.3973 119.691C49.3779 119.691 49.3584 119.691 49.3389 119.691C36.3156 119.438 24.1488 116.812 15.0578 112.318C5.71371 107.687 0.574463 101.5 0.574463 94.9243V74.3987H2.52115C2.52115 80.3715 7.50466 86.0331 16.5567 90.3717C25.8424 94.8076 38.2039 97.259 51.3829 97.259H52.3563V116.734C52.3563 117.532 52.0448 118.29 51.4608 118.855C50.8963 119.399 50.176 119.691 49.3973 119.691ZM2.52115 81.3054V94.9438C2.52115 100.742 7.27106 106.306 15.9143 110.586C24.7523 114.964 36.6271 117.512 49.3584 117.765C49.6309 117.765 49.884 117.668 50.0981 117.473C50.2928 117.279 50.4096 117.026 50.4096 116.734V99.2045C37.3279 99.0878 25.0248 96.578 15.7197 92.1421C9.39295 89.0876 4.8961 85.3716 2.52115 81.3054Z" fill="#323063"/>
<path d="M51.3828 75.4687V94.9243H98.9209C100.186 94.9243 101.218 93.8932 101.218 92.6285V74.3987H52.4535C51.8695 74.3987 51.3828 74.885 51.3828 75.4687Z" fill="#FFC964"/>
<path d="M98.9211 95.8972H50.4097V75.4688C50.4097 74.3404 51.3246 73.426 52.4537 73.426H102.191V92.6286C102.191 94.438 100.731 95.8972 98.9211 95.8972ZM52.3564 93.9516H98.9211C99.6413 93.9516 100.245 93.3679 100.245 92.6286V75.3715H52.4537C52.3953 75.3715 52.3564 75.4104 52.3564 75.4688V93.9516Z" fill="#323063"/>
<path d="M87.0854 88.1342C83.4451 88.1342 80.5834 91.286 80.9728 94.9242H93.2174C93.5873 91.286 90.7451 88.1342 87.0854 88.1342Z" fill="#FFC964"/>
<path d="M94.0934 95.8971H80.0967L79.9993 95.0216C79.7852 93.0177 80.4471 90.9943 81.7903 89.5157C83.1335 88.0176 85.0607 87.1616 87.0853 87.1616C89.1098 87.1616 91.0371 88.0176 92.3803 89.5157C93.7235 91.0138 94.3854 93.0177 94.1712 95.0216L94.0934 95.8971ZM81.9071 93.9516H92.2635C92.1856 92.7842 91.7184 91.6753 90.9397 90.8192C89.9664 89.7297 88.5648 89.1071 87.0853 89.1071C85.6253 89.1071 84.2236 89.7297 83.2308 90.8192C82.4327 91.6947 81.985 92.7842 81.9071 93.9516Z" fill="#323063"/>
<path d="M67.7157 84.6711C67.7157 87.0836 65.7495 89.0487 63.3356 89.0487C60.9217 89.0487 58.9556 87.0836 58.9556 84.6711C58.9556 82.2587 60.9217 80.2936 63.3356 80.2936C65.7495 80.2936 67.7157 82.2587 67.7157 84.6711Z" fill="#FFC964"/>
<path d="M63.3356 90.0021C60.3961 90.0021 57.9822 87.6091 57.9822 84.6518C57.9822 81.714 60.3766 79.3015 63.3356 79.3015C66.2751 79.3015 68.6889 81.6946 68.6889 84.6518C68.6889 87.6091 66.2945 90.0021 63.3356 90.0021ZM63.3356 81.2665C61.4667 81.2665 59.9289 82.7841 59.9289 84.6713C59.9289 86.539 61.4473 88.076 63.3356 88.076C65.2044 88.076 66.7423 86.5584 66.7423 84.6713C66.7423 82.7841 65.2238 81.2665 63.3356 81.2665Z" fill="#323063"/>
<path d="M80.0577 81.0915C80.0577 82.5701 78.8507 83.7764 77.3712 83.7764C75.8918 83.7764 74.6848 82.5701 74.6848 81.0915C74.6848 79.6129 75.8918 78.4066 77.3712 78.4066C78.8507 78.3871 80.0577 79.5934 80.0577 81.0915Z" fill="#FFC964"/>
<path d="M77.3712 84.749C75.3466 84.749 73.7114 83.0953 73.7114 81.0914C73.7114 79.0874 75.3661 77.4337 77.3712 77.4337C79.3763 77.4337 81.031 79.0874 81.031 81.0914C81.031 83.0953 79.3958 84.749 77.3712 84.749ZM77.3712 79.3598C76.4173 79.3598 75.6581 80.138 75.6581 81.0719C75.6581 82.0058 76.4368 82.784 77.3712 82.784C78.3056 82.784 79.0843 82.0058 79.0843 81.0719C79.0843 80.138 78.3251 79.3598 77.3712 79.3598Z" fill="#323063"/>
<path d="M87.3965 89.1071C87.2991 89.1071 87.2018 89.1071 87.1045 89.1071C85.6444 89.1071 84.2428 89.7297 83.25 90.8192C82.4519 91.7142 82.0041 92.8037 81.9263 93.9516H84.5932C84.6906 91.9476 85.7612 90.1577 87.3965 89.1071Z" fill="#E87E04"/>
<path d="M62.6152 84.6712C62.6152 83.3482 63.1992 82.1614 64.1336 81.3638C63.8805 81.3054 63.6275 81.2665 63.3549 81.2665C61.4861 81.2665 59.9482 82.784 59.9482 84.6712C59.9482 86.5389 61.4667 88.0759 63.3549 88.0759C63.6275 88.0759 63.8805 88.037 64.1336 87.9787C63.1992 87.1615 62.6152 85.9942 62.6152 84.6712Z" fill="#E87E04"/>
<path d="M78.5974 79.8851C78.286 79.5738 77.8577 79.3598 77.371 79.3598C76.4172 79.3598 75.658 80.138 75.658 81.0719C75.658 82.0058 76.4366 82.784 77.371 82.784C77.8577 82.784 78.286 82.5894 78.5974 82.2587C78.2081 81.5388 78.2081 80.6439 78.5974 79.8851Z" fill="#E87E04"/>
<path d="M52.3562 75.4687V93.9515H55.393V75.3714H52.4535C52.3951 75.3714 52.3562 75.4298 52.3562 75.4687Z" fill="#F3A334"/>
<path d="M5.558 85.216C5.51907 85.1771 5.48014 85.1382 5.4412 85.0993C5.28547 84.9437 5.12973 84.7686 4.974 84.6129C4.95453 84.5935 4.93506 84.574 4.9156 84.5546C4.77933 84.3989 4.64306 84.2627 4.52626 84.1071C4.48733 84.0682 4.46786 84.0292 4.42893 83.9903C4.29266 83.8347 4.15639 83.6596 4.02012 83.4845C4.00066 83.465 3.98119 83.4261 3.96172 83.4067C3.84492 83.251 3.72812 83.1148 3.61132 82.9592C3.59185 82.9203 3.55292 82.9008 3.53345 82.8619C3.41665 82.6868 3.29985 82.5312 3.18305 82.3561C3.16358 82.3172 3.14412 82.2782 3.10518 82.2588C3.00785 82.1031 2.91051 81.967 2.81318 81.8113C2.79371 81.7724 2.77424 81.7529 2.75478 81.714C2.67691 81.5778 2.57958 81.4417 2.50171 81.286V94.9244C2.50171 97.6482 3.55292 100.314 5.558 102.823V85.216C5.57747 85.216 5.57747 85.216 5.558 85.216Z" fill="#F3A334"/>
<path d="M31.9938 107.259C32.8309 107.259 33.4928 106.578 33.4928 105.761V97.6286C33.3176 97.5897 33.1424 97.5703 32.9866 97.5313C32.792 97.4924 32.6168 97.4535 32.4221 97.4146C32.2274 97.3757 32.0522 97.3368 31.8576 97.2979C31.6629 97.259 31.4877 97.2201 31.293 97.1811C31.1178 97.1422 30.9231 97.1033 30.7479 97.0644C30.6701 97.045 30.5727 97.0255 30.4949 97.006V105.742C30.4949 106.598 31.1762 107.259 31.9938 107.259Z" fill="#FFE183"/>
<path d="M40.5204 98.6403C40.3257 98.6208 40.1311 98.6014 39.9364 98.5819C39.7417 98.5624 39.5276 98.543 39.3329 98.5235C39.1382 98.5041 38.9436 98.4846 38.7489 98.4457C38.6321 98.4263 38.5348 98.4263 38.418 98.4068V101.52C38.418 102.356 39.0993 103.018 39.9169 103.018C40.7345 103.018 41.4159 102.337 41.4159 101.52V98.7375C41.3185 98.7181 41.2017 98.7181 41.1044 98.6986C40.9292 98.6792 40.7345 98.6597 40.5204 98.6403Z" fill="#FFE183"/>
<g clip-path="url(#clip0)">
<path d="M123.691 50.9855L124.952 50.3065L139.162 42.3053C139.217 42.2851 139.242 42.1817 139.194 42.1363C139.003 41.9549 138.617 41.4988 138.354 40.7778C137.405 38.1713 138.801 35.2759 141.464 34.3061C144.1 33.3464 146.993 34.6482 147.978 37.1791C148.053 37.2143 148.053 37.2143 148.129 37.2496L174.945 22.0196C175.384 21.6714 175.52 21.5276 175.278 20.8621L173.561 16.1481C173.541 16.0927 173.465 16.0574 173.41 16.0776C171.548 16.6612 169.485 15.6539 168.788 13.7406C168.091 11.8273 168.986 9.71128 170.825 8.97899C170.88 8.95878 170.915 8.88312 170.895 8.82766L168.785 3.03229C168.764 2.97683 168.689 2.94158 168.633 2.96178C165.93 4.51152 145.726 15.9833 130.727 24.4918C130.497 24.6382 130.258 24.7568 130.028 24.9032C129.973 24.9234 129.965 24.989 129.985 25.0444C130.19 25.3469 130.349 25.6972 130.48 26.0577C131.47 28.7751 130.003 31.8218 127.173 32.8523C124.593 33.7918 121.78 32.7118 120.559 30.3928C120.539 30.3374 120.463 30.3021 120.418 30.3501C118.854 31.2335 117.659 31.92 116.933 32.3415C116.877 32.3617 116.87 32.4273 116.89 32.4827C116.981 32.7323 117.132 33.1482 117.334 33.7028C118.589 37.2345 121.909 46.6095 123.272 50.3529C123.353 50.5748 123.461 50.7865 123.597 50.9881C123.57 50.9982 123.635 51.0057 123.691 50.9855Z" fill="#FFC964"/>
<path d="M173.942 24.9601L148.347 39.4002C148.319 39.4103 148.301 39.4481 148.284 39.486C148.024 41.2763 146.519 42.2328 145.359 42.8436C145.147 42.9522 144.907 43.0708 144.686 43.1517C143.604 43.5456 142.438 43.6245 141.404 43.373C141.366 43.3554 141.339 43.3655 141.311 43.3756L125.933 52.0532L125.308 52.4066C125.321 52.5276 125.311 52.4999 125.313 52.5932C127.576 53.7164 129.831 54.5597 132.015 55.2089C132.053 55.2265 132.109 55.2063 132.126 55.1685C132.731 54.4142 133.601 53.7834 134.683 53.3894C137.235 52.46 139.798 53.2855 140.515 55.2542C140.677 55.6979 140.717 56.1542 140.692 56.6031C140.685 56.6686 140.733 56.714 140.798 56.7215C147.664 57.1107 153.404 55.6171 157.038 54.2938C157.371 54.1725 157.618 53.9883 157.734 53.7891C157.903 53.4763 164.989 41.0972 167.197 37.1524C167.295 36.991 167.144 36.9205 167.068 36.8853C166.256 36.5529 165.67 35.9809 165.398 35.2322C164.964 34.0399 165.457 32.6352 166.716 31.5175C167.336 30.9775 168.135 30.498 168.968 30.1949C169.689 29.9323 170.478 29.7704 171.197 29.7599C171.225 29.7498 171.401 29.7169 171.437 29.6413C171.49 29.5278 171.651 29.2806 171.883 28.8821C172.329 28.1229 173.383 26.3573 174.114 25.0861C174.149 25.0104 174.043 24.892 173.942 24.9601ZM155.677 48.5711C153.124 49.5005 150.562 48.675 149.845 46.7062C149.128 44.7375 150.56 42.4573 153.112 41.5279C155.664 40.5985 158.227 41.424 158.944 43.3927C159.661 45.3615 158.229 47.6417 155.677 48.5711Z" fill="#FFE183"/>
<path d="M158.149 26.9741C159.924 26.3275 160.862 24.4158 160.256 22.752C159.64 21.0606 157.703 20.2271 155.927 20.8737C154.152 21.5202 153.214 23.432 153.82 25.0957C154.426 26.7595 156.373 27.6206 158.149 26.9741Z" fill="#F3A334"/>
<path d="M158.914 23.2092C159.45 24.6788 158.784 26.303 157.453 27.1333C157.695 27.1079 157.917 27.0271 158.139 26.9463C159.914 26.2998 160.852 24.388 160.246 22.7243C159.63 21.0328 157.693 20.1994 155.917 20.8459C155.695 20.9267 155.483 21.0353 155.272 21.1438C156.853 20.9134 158.379 21.7395 158.914 23.2092Z" fill="#E87E04"/>
<path d="M143.989 41.2384C144.155 41.1778 144.294 41.1273 144.45 41.039C146.145 40.1706 146.359 39.4645 146.323 38.8493C146.306 38.5417 146.303 38.4484 146.111 37.9215C145.536 36.341 143.74 35.5504 142.131 36.1363C140.494 36.7323 139.655 38.4826 140.23 40.0632C140.503 40.8119 141.101 41.1595 141.562 41.3054C142.261 41.5849 143.156 41.5415 143.989 41.2384Z" fill="#FFC964"/>
<path d="M144.749 38.6686C145.022 39.4173 144.997 40.2116 144.717 40.9102C146.152 40.105 146.359 39.4644 146.333 38.877C146.316 38.5694 146.313 38.4761 146.121 37.9492C145.546 36.3687 143.75 35.578 142.141 36.164C141.836 36.2751 141.578 36.4316 141.349 36.5779C142.812 36.4535 144.245 37.2822 144.749 38.6686Z" fill="#F3A334"/>
<path d="M153.798 43.4134C152.383 43.9286 151.39 45.1697 151.703 46.0293C151.986 46.8057 153.409 47.2613 154.99 46.6854C156.571 46.1096 157.368 44.8459 157.085 44.0695C156.772 43.2099 155.241 42.8881 153.798 43.4134Z" fill="#FFC964"/>
<path d="M124.305 54.3109C126.567 55.434 128.881 56.3504 131.272 57.0499C131.62 57.143 131.94 57.2462 132.288 57.3393C132.74 57.4575 133.191 57.2303 133.413 56.8041C133.6 56.4535 133.935 56.0801 134.328 55.7799C134.631 55.5754 134.971 55.3887 135.36 55.2472C136.775 54.732 138.333 55.0437 138.646 55.9033C138.717 56.0974 138.722 56.284 138.682 56.5185C138.606 56.8287 138.437 57.1415 138.175 57.4568C137.84 57.8301 138.09 58.4301 138.614 58.4903C139.008 58.5354 139.429 58.5705 139.85 58.6055C141.722 58.7406 143.619 58.7722 145.558 58.6626C149.679 58.4181 153.803 57.576 157.687 56.1617C158.463 55.8789 159.104 55.3944 159.442 54.7689C159.593 54.494 167.783 40.1424 169.396 37.3251C169.547 37.0502 169.661 36.7576 169.701 36.5231C169.804 35.8574 169.295 35.3207 168.639 35.2454C167.927 35.1904 167.461 34.8578 167.329 34.4974C167.188 34.1092 167.407 33.5896 168.028 33.0497C168.484 32.6636 169.026 32.3406 169.636 32.1183C170.164 31.9264 170.721 31.8176 171.243 31.7845C171.243 31.7845 171.72 31.7994 172.053 31.6782C172.496 31.5165 172.87 31.1608 173.165 30.6765C173.228 30.5907 173.379 30.3158 173.593 29.9551C175.28 27.0798 176.457 25.0494 176.691 24.3987C176.996 23.5967 177.119 22.9865 177.17 22.7797C177.291 22.4216 177.548 21.2288 176.982 19.676L175.225 14.8511C174.872 13.8806 174.072 13.6693 173.406 13.9118C173.268 13.9623 173.167 14.0304 173.111 14.0506L173.084 14.0607C173.028 14.0809 172.945 14.1112 172.889 14.1314C172.029 14.4446 171.035 13.9586 170.692 13.0158C170.349 12.073 170.797 11.0617 171.657 10.7485C171.713 10.7283 171.768 10.7081 171.824 10.6879C171.879 10.6677 171.935 10.6475 172.018 10.6172C172.739 10.3545 173.296 9.55489 172.963 8.63984L170.52 1.92941C170.176 0.986619 169.182 0.500591 168.239 0.844062C168.128 0.88447 168.017 0.924875 167.916 0.993013C167.263 1.35648 144.668 14.2013 129.715 22.6619C129.273 22.9168 128.832 23.1717 128.408 23.3888L128.353 23.409C127.543 23.8608 127.405 24.9476 128.003 25.6406C128.051 25.686 128.109 25.7591 128.157 25.8044C128.341 26.0514 128.498 26.3085 128.599 26.5858C129.214 28.2773 128.267 30.1613 126.491 30.8078C124.799 31.4241 122.958 30.6814 122.243 29.1513C122.213 29.0681 122.193 29.0127 122.163 28.9295L122.153 28.9017C121.84 28.0421 120.82 27.6595 120.049 28.1289L119.993 28.1491C117.989 29.2875 116.481 30.1507 115.727 30.5823C115.129 30.9256 114.483 31.5689 114.918 32.7613C114.938 32.8167 115.13 33.3436 115.443 34.2032C116.697 37.7349 120.027 47.1376 121.39 50.881C121.754 51.8793 122.468 52.7184 122.622 52.8822C122.723 53.1595 123.349 53.8424 124.305 54.3109ZM174.086 25.0962C173.365 26.3951 172.311 28.1607 171.855 28.8922C171.623 29.2907 171.472 29.5656 171.409 29.6514C171.363 29.6993 171.197 29.7599 171.169 29.77C170.45 29.7805 169.661 29.9424 168.94 30.205C168.08 30.5182 167.308 30.9876 166.688 31.5276C165.44 32.673 164.936 34.05 165.38 35.2701C165.653 36.0188 166.228 36.563 167.05 36.9231C167.126 36.9583 167.277 37.0289 167.179 37.1903C164.933 41.1174 157.885 53.5142 157.716 53.8269C157.6 54.0262 157.353 54.2104 157.02 54.3316C153.414 55.6449 147.674 57.1384 140.78 56.7593C140.715 56.7518 140.667 56.7064 140.674 56.6409C140.727 56.182 140.659 55.7357 140.497 55.2921C139.781 53.3233 137.218 52.4978 134.666 53.4272C133.584 53.8212 132.714 54.4521 132.109 55.2063C132.091 55.2441 132.035 55.2643 131.998 55.2467C129.813 54.5975 127.586 53.7441 125.295 52.631C125.283 52.51 125.293 52.5377 125.29 52.4444L125.923 52.0255L141.301 43.3478C141.328 43.3377 141.356 43.3276 141.394 43.3453C142.428 43.5968 143.593 43.5179 144.675 43.1239C144.925 43.033 145.137 42.9245 145.349 42.8159C146.509 42.2051 148.042 41.2385 148.273 39.4582C148.291 39.4204 148.281 39.3927 148.336 39.3725L173.942 24.9601C174.043 24.892 174.149 25.0104 174.086 25.0962ZM141.535 41.3155C141.073 41.1695 140.475 40.8219 140.202 40.0732C139.627 38.4927 140.494 36.7322 142.103 36.1463C143.74 35.5503 145.508 36.351 146.084 37.9316C146.275 38.4584 146.278 38.5517 146.296 38.8593C146.331 39.4745 146.117 40.1806 144.422 41.049C144.266 41.1373 144.127 41.1878 143.961 41.2485C143.156 41.5414 142.261 41.5848 141.535 41.3155ZM117.296 33.6852C117.094 33.1306 116.943 32.7147 116.852 32.4651C116.832 32.4096 116.849 32.3718 116.895 32.3239C117.621 31.9024 118.816 31.2158 120.38 30.3324C120.435 30.3122 120.501 30.3197 120.521 30.3752C121.733 32.6664 124.555 33.7741 127.135 32.8346C129.937 31.8143 131.432 28.7575 130.442 26.0401C130.311 25.6796 130.134 25.367 129.947 25.0268C129.927 24.9713 129.935 24.9058 129.99 24.8856C130.22 24.7392 130.459 24.6205 130.689 24.4741C145.66 15.9757 165.892 4.49389 168.595 2.94415C168.651 2.92395 168.717 2.93147 168.747 3.01466L170.857 8.81003C170.877 8.86549 170.842 8.94115 170.787 8.96135C168.986 9.71128 168.054 11.8096 168.75 13.7229C169.447 15.6362 171.493 16.6814 173.372 16.06C173.427 16.0398 173.503 16.075 173.523 16.1305L175.25 20.8722C175.492 21.5377 175.356 21.6815 174.917 22.0297L148.091 37.232C148.015 37.1967 148.015 37.1967 147.94 37.1615C146.955 34.6306 144.062 33.3288 141.426 34.2885C138.763 35.2583 137.367 38.1536 138.316 40.7602C138.579 41.4811 138.965 41.9373 139.156 42.1187C139.204 42.164 139.207 42.2573 139.124 42.2876L124.914 50.2889L123.653 50.9679C123.597 50.9881 123.532 50.9806 123.512 50.9251C123.375 50.7235 123.267 50.5118 123.186 50.2899C121.871 46.5919 118.551 37.2169 117.296 33.6852Z" fill="#323063"/>
<path d="M153.121 41.5557C150.569 42.4851 149.137 44.7653 149.854 46.734C150.571 48.7028 153.134 49.5283 155.686 48.5989C158.238 47.6695 159.67 45.3893 158.953 43.4206C158.236 41.4518 155.674 40.6263 153.121 41.5557ZM155 46.7133C153.418 47.2891 151.996 46.8336 151.713 46.0572C151.4 45.1976 152.366 43.9666 153.808 43.4413C155.223 42.9261 156.782 43.2378 157.095 44.0974C157.367 44.8461 156.581 46.1375 155 46.7133Z" fill="#323063"/>
<path d="M158.825 28.8319C161.627 27.8116 163.122 24.7548 162.132 22.0373C161.143 19.3199 158.06 17.9299 155.231 18.9604C152.429 19.9807 150.934 23.0375 151.924 25.7549C152.913 28.4724 156.024 29.8522 158.825 28.8319ZM155.917 20.8459C157.693 20.1994 159.64 21.0605 160.246 22.7243C160.862 24.4158 159.914 26.2998 158.139 26.9463C156.363 27.5929 154.416 26.7317 153.81 25.068C153.194 23.3765 154.142 21.4925 155.917 20.8459Z" fill="#323063"/>
<path d="M156.21 44.8592C156.361 45.2752 156.208 45.8022 155.802 46.3269C156.831 45.701 157.327 44.735 157.095 44.0973C156.782 43.2377 155.251 42.9158 153.808 43.4411C153.115 43.6937 152.52 44.1303 152.121 44.5894C152.379 44.4329 152.646 44.3042 152.923 44.2031C154.366 43.6778 155.887 43.9719 156.21 44.8592Z" fill="#F3A334"/>
<path d="M170.832 8.91341C170.887 8.89321 170.923 8.81754 170.902 8.76208L168.792 2.96671C168.772 2.91125 168.696 2.876 168.641 2.8962C168.245 3.10319 167.519 3.52469 166.535 4.10268L168.948 10.7299C169.301 9.9733 169.964 9.29214 170.832 8.91341Z" fill="#F3A334"/>
<path d="M174.935 21.9918C175.374 21.6436 175.51 21.4998 175.267 20.8343L173.551 16.1203C173.531 16.0649 173.455 16.0296 173.399 16.0498C172.502 16.3454 171.556 16.2501 170.751 15.8522L173.316 22.8954L174.935 21.9918Z" fill="#F3A334"/>
<path d="M157 54.2762C157.333 54.1549 157.58 53.9707 157.696 53.7715C157.864 53.4587 164.95 41.0796 167.159 37.1348C167.257 36.9734 167.105 36.9029 167.03 36.8677C166.548 36.6662 166.139 36.4068 165.849 36.0413L155.121 54.8976C155.797 54.6828 156.417 54.4883 157 54.2762Z" fill="#F3A334"/>
<path d="M171.169 29.77C171.197 29.7599 171.374 29.727 171.409 29.6514C171.462 29.5379 171.623 29.2907 171.855 28.8922C172.301 28.133 173.355 26.3674 174.086 25.0962C174.149 25.0104 174.043 24.892 173.932 24.9324L171.347 26.3761L169.217 30.104C169.865 29.8994 170.544 29.7779 171.169 29.77Z" fill="#F3A334"/>
</g>
<g clip-path="url(#clip1)">
<path d="M72.652 137.792L73.1782 136.464L78.882 121.227C78.9115 121.176 78.8636 121.081 78.7973 121.076C78.5322 121.059 77.9395 120.955 77.2693 120.568C74.8465 119.169 74.0359 116.049 75.4492 113.601C76.8478 111.179 79.9146 110.331 82.3153 111.65C82.3963 111.628 82.3963 111.628 82.4773 111.607L93.1563 82.7532C93.2667 82.2049 93.2777 82.0072 92.6591 81.6501L88.2773 79.1203C88.2257 79.0905 88.1448 79.1117 88.1153 79.1627C87.0663 80.8011 84.8279 81.3447 83.0494 80.3179C81.271 79.2911 80.5821 77.0914 81.5169 75.3531C81.5463 75.3021 81.5242 75.2214 81.4727 75.1916L76.0857 72.0814C76.0341 72.0517 75.9531 72.0729 75.9237 72.1239C74.8565 75.0437 66.8086 96.7809 60.8288 112.912C60.7479 113.171 60.6412 113.416 60.5602 113.675C60.5308 113.726 60.5676 113.781 60.6191 113.811C60.9726 113.913 61.3224 114.081 61.6575 114.275C64.1834 115.733 65.0382 119.014 63.5366 121.615C62.1674 123.987 59.3069 124.953 56.862 123.95C56.8104 123.92 56.7294 123.941 56.7258 124.007C56.1002 125.686 55.6292 126.978 55.3458 127.766C55.3164 127.817 55.3532 127.872 55.4048 127.902C55.6367 128.036 56.0234 128.259 56.5389 128.557C59.7976 130.472 68.4396 135.564 71.9192 137.573C72.1254 137.692 72.3464 137.785 72.582 137.854C72.5673 137.879 72.6225 137.843 72.652 137.792Z" fill="#FFC964"/>
<path d="M94.2982 85.6564L84.0423 113.123C84.0276 113.148 84.0386 113.189 84.0497 113.229C85.0146 114.772 84.4811 116.47 83.9879 117.681C83.8959 117.9 83.7892 118.144 83.6714 118.348C83.0973 119.343 82.2543 120.148 81.2971 120.616C81.2566 120.626 81.2419 120.652 81.2272 120.677L75.067 137.18L74.8168 137.852C74.9052 137.937 74.8794 137.922 74.942 137.992C77.4087 137.41 79.6875 136.618 81.786 135.722C81.8265 135.711 81.8559 135.66 81.8449 135.62C81.8189 134.653 82.0764 133.611 82.6506 132.617C84.005 130.271 86.5084 129.268 88.3385 130.325C88.7509 130.563 89.0786 130.888 89.3511 131.249C89.388 131.305 89.4542 131.309 89.5094 131.273C95.0313 127.185 98.4655 122.368 100.394 119.027C100.571 118.721 100.641 118.422 100.6 118.194C100.526 117.846 97.9171 103.793 97.0473 99.3474C97.0179 99.1604 96.8559 99.2029 96.7749 99.2241C95.9355 99.4875 95.1144 99.4214 94.4185 99.0196C93.3102 98.3797 92.7761 96.9834 93.0151 95.3194C93.1401 94.5076 93.4418 93.6278 93.8835 92.8628C94.2663 92.1998 94.7669 91.5709 95.3117 91.1034C95.3264 91.0779 95.4405 90.9398 95.4184 90.8591C95.3853 90.7379 95.3484 90.4446 95.2673 89.9898C95.1162 89.1206 94.7771 87.0888 94.5117 85.6437C94.4896 85.5629 94.3313 85.5395 94.2982 85.6564ZM95.6292 115.494C94.2748 117.84 91.7714 118.843 89.9414 117.786C88.1113 116.73 87.7279 114.061 89.0824 111.715C90.4368 109.369 92.9402 108.366 94.7702 109.423C96.6003 110.479 96.9837 113.148 95.6292 115.494Z" fill="#FFE183"/>
<path d="M83.4873 97.2983C84.4295 95.6663 83.9063 93.5963 82.3598 92.7034C80.7875 91.7956 78.759 92.3924 77.8168 94.0244C76.8746 95.6564 77.3977 97.7264 78.9443 98.6193C80.4908 99.5122 82.5451 98.9303 83.4873 97.2983Z" fill="#F3A334"/>
<path d="M81.6273 93.9125C82.9933 94.7012 83.5386 96.376 83.0565 97.8656C83.2259 97.6914 83.3436 97.4874 83.4614 97.2834C84.4036 95.6514 83.8804 93.5814 82.3339 92.6885C80.7617 91.7807 78.7331 92.3775 77.7909 94.0095C77.6731 94.2135 77.5811 94.4324 77.4891 94.6513C78.5529 93.4635 80.2612 93.1238 81.6273 93.9125Z" fill="#E87E04"/>
<path d="M81.8931 117.322C81.9814 117.169 82.055 117.041 82.1176 116.873C82.8536 115.122 82.5589 114.442 82.1317 113.992C81.9182 113.766 81.8556 113.696 81.3658 113.413C79.8967 112.565 78.0043 113.105 77.1504 114.584C76.2818 116.088 76.7756 117.971 78.2447 118.819C78.9407 119.221 79.6254 119.106 80.0746 118.924C80.7925 118.692 81.4514 118.087 81.8931 117.322Z" fill="#FFC964"/>
<path d="M80.8063 114.858C81.5022 115.26 81.9994 115.887 82.2388 116.603C82.8165 115.067 82.5587 114.442 82.1573 114.006C81.9437 113.781 81.8811 113.711 81.3914 113.428C79.9222 112.58 78.0299 113.119 77.176 114.598C77.0141 114.879 76.9184 115.164 76.8374 115.423C77.8792 114.392 79.5175 114.114 80.8063 114.858Z" fill="#F3A334"/>
<path d="M90.8352 112.726C90.0843 114.027 90.1288 115.617 90.9278 116.078C91.6496 116.495 93.0375 115.936 93.8766 114.482C94.7158 113.029 94.5057 111.548 93.784 111.131C92.9849 110.67 91.6007 111.4 90.8352 112.726Z" fill="#FFC964"/>
<path d="M75.2849 139.958C77.7515 139.376 80.1224 138.603 82.4123 137.613C82.7399 137.462 83.0529 137.337 83.3805 137.186C83.8039 136.989 84.0026 136.525 83.8957 136.056C83.811 135.667 83.8256 135.165 83.9323 134.683C84.0316 134.332 84.1715 133.971 84.3776 133.614C85.1284 132.313 86.5274 131.557 87.3264 132.018C87.5068 132.123 87.632 132.263 87.7536 132.469C87.8972 132.756 87.9709 133.105 87.9747 133.515C87.96 134.016 88.5418 134.318 88.9835 134.029C89.3149 133.812 89.6609 133.57 90.0069 133.328C91.531 132.236 93.0071 131.048 94.4244 129.725C97.4282 126.903 100.045 123.62 102.106 120.05C102.519 119.336 102.695 118.554 102.548 117.857C102.485 117.549 99.4409 101.273 98.8475 98.0748C98.7849 97.7666 98.6818 97.4691 98.5602 97.2629C98.2067 96.6848 97.4666 96.5975 96.9144 96.9587C96.3328 97.3709 95.7584 97.4133 95.4234 97.2198C95.0625 97.0115 94.893 96.4716 95.0181 95.6598C95.1174 95.0712 95.3234 94.4762 95.6473 93.9152C95.927 93.4307 96.2841 92.9908 96.6632 92.6317C96.6632 92.6317 97.0387 92.3385 97.2154 92.0325C97.4509 91.6246 97.5061 91.1124 97.4176 90.5513C97.4102 90.4451 97.3476 90.1369 97.2775 89.7225C96.7026 86.4326 96.2861 84.1181 96.043 83.4678C95.7557 82.6559 95.4536 82.1075 95.3579 81.9163C95.2179 81.5634 94.6397 80.4816 93.1963 79.6483L88.7114 77.0589C87.8093 76.5381 87.0583 76.8865 86.7049 77.4985C86.6313 77.626 86.5982 77.7428 86.5688 77.7938L86.554 77.8193C86.5246 77.8703 86.4804 77.9468 86.451 77.9978C85.9946 78.7883 84.9159 79.0495 84.0395 78.5436C83.1632 78.0376 82.85 76.9728 83.3064 76.1823C83.3359 76.1313 83.3653 76.0803 83.3948 76.0293C83.4242 75.9783 83.4536 75.9273 83.4978 75.8508C83.8806 75.1878 83.7884 74.2166 82.9378 73.7255L76.7002 70.1243C75.8239 69.6183 74.7452 69.8795 74.2446 70.7465C74.1857 70.8485 74.1268 70.9505 74.0937 71.0674C73.8288 71.7644 64.8388 96.0856 58.8627 112.151C58.6897 112.629 58.5168 113.107 58.3328 113.545L58.3033 113.596C57.9758 114.461 58.5761 115.385 59.4855 115.536C59.5518 115.541 59.6439 115.56 59.7101 115.564C60.012 115.636 60.2992 115.734 60.557 115.883C62.1293 116.791 62.6267 118.846 61.6845 120.478C60.7864 122.033 58.8904 122.639 57.3476 121.918C57.2703 121.873 57.2188 121.844 57.1414 121.799L57.1157 121.784C56.3166 121.323 55.2858 121.68 54.9988 122.534L54.9694 122.585C54.1708 124.742 53.5747 126.37 53.2766 127.184C53.0411 127.83 52.964 128.737 54.0723 129.377C54.1238 129.407 54.6136 129.689 55.4126 130.151C58.6713 132.066 67.3391 137.173 70.8187 139.181C71.7467 139.717 72.8402 139.907 73.0648 139.934C73.3225 140.083 74.2467 140.209 75.2849 139.958ZM94.4971 85.6692C94.7882 87.1293 95.1273 89.161 95.2526 90.0154C95.3337 90.4702 95.3964 90.7783 95.4038 90.8846C95.4001 90.9505 95.3118 91.1035 95.297 91.129C94.7522 91.5964 94.2516 92.2254 93.8688 92.8884C93.4125 93.6789 93.1254 94.5331 93.0004 95.3449C92.7872 97.0238 93.2955 98.4053 94.4296 99.0601C95.1256 99.4618 95.9208 99.513 96.786 99.2645C96.867 99.2433 97.029 99.2008 97.0585 99.3878C97.8877 103.845 100.538 117.886 100.611 118.235C100.652 118.462 100.582 118.762 100.405 119.068C98.4913 122.383 95.0572 127.2 89.5206 131.313C89.4654 131.349 89.3991 131.345 89.3623 131.29C89.1045 130.903 88.762 130.603 88.3496 130.365C86.5196 129.309 84.0162 130.311 82.6617 132.657C82.0876 133.652 81.83 134.693 81.856 135.66C81.867 135.7 81.8376 135.751 81.7971 135.762C79.6987 136.658 77.4345 137.425 74.9531 138.033C74.8648 137.947 74.8905 137.962 74.8279 137.892L75.0413 137.165L81.2015 120.662C81.2162 120.637 81.2309 120.611 81.2714 120.601C82.2286 120.133 83.0716 119.328 83.6457 118.334C83.7782 118.104 83.8702 117.885 83.9622 117.666C84.4554 116.455 85.0036 114.732 84.024 113.214C84.0129 113.174 83.9872 113.159 84.0166 113.108L94.2982 85.6564C94.3314 85.5395 94.4897 85.5629 94.4971 85.6692ZM80.0598 118.949C79.6107 119.132 78.9259 119.247 78.23 118.845C76.7608 117.996 76.2818 116.088 77.1357 114.609C78.0043 113.105 79.8819 112.591 81.3511 113.439C81.8408 113.722 81.9034 113.792 82.117 114.017C82.5442 114.468 82.8388 115.148 82.1028 116.899C82.0402 117.067 81.9666 117.194 81.8783 117.347C81.4514 118.087 80.7924 118.692 80.0598 118.949ZM56.4984 128.568C55.9829 128.27 55.5963 128.047 55.3643 127.913C55.3128 127.883 55.3017 127.843 55.3054 127.777C55.5887 126.988 56.0597 125.696 56.6853 124.018C56.7148 123.967 56.77 123.931 56.8215 123.96C59.2406 124.949 62.1269 123.997 63.4961 121.626C64.9831 119.05 64.143 115.744 61.617 114.285C61.282 114.092 60.9432 113.964 60.5787 113.822C60.5271 113.792 60.4903 113.737 60.5198 113.686C60.6007 113.426 60.7074 113.182 60.7884 112.923C66.7535 96.817 74.8161 75.0544 75.8832 72.1345C75.9127 72.0835 75.9679 72.0474 76.0452 72.0921L81.4322 75.2022C81.4838 75.232 81.5059 75.3128 81.4764 75.3638C80.5821 77.0914 81.2305 79.3017 83.009 80.3285C84.7875 81.3553 87.0369 80.8521 88.0749 79.1734C88.1043 79.1224 88.1853 79.1011 88.2368 79.1309L92.6444 81.6756C93.263 82.0327 93.252 82.2304 93.1416 82.7787L82.4368 111.618C82.3559 111.639 82.3559 111.639 82.2749 111.66C79.8741 110.342 76.8074 111.189 75.4088 113.612C73.9954 116.06 74.806 119.18 77.2289 120.579C77.899 120.966 78.4918 121.07 78.7569 121.087C78.8232 121.091 78.8858 121.161 78.8416 121.238L73.1377 136.474L72.6115 137.803C72.5821 137.854 72.5268 137.89 72.4753 137.86C72.2396 137.792 72.0187 137.698 71.8125 137.579C68.3992 135.575 59.7571 130.483 56.4984 128.568Z" fill="#323063"/>
<path d="M89.1083 111.73C87.7538 114.076 88.1372 116.745 89.9673 117.801C91.7973 118.858 94.3007 117.855 95.6551 115.509C97.0096 113.163 96.6262 110.494 94.7961 109.438C92.9661 108.381 90.4627 109.384 89.1083 111.73ZM93.9024 114.498C93.0633 115.951 91.6753 116.51 90.9536 116.093C90.1546 115.632 90.0954 114.068 90.861 112.742C91.6118 111.441 93.0107 110.685 93.8098 111.146C94.5057 111.548 94.7416 113.044 93.9024 114.498Z" fill="#323063"/>
<path d="M85.214 98.2954C86.7009 95.7199 85.8608 92.413 83.3349 90.9546C80.8089 89.4962 77.5397 90.3967 76.038 92.9977C74.5511 95.5731 75.3912 98.8801 77.9171 100.338C80.4431 101.797 83.727 100.871 85.214 98.2954ZM77.7907 94.0096C78.733 92.3776 80.7873 91.7957 82.3338 92.6886C83.9061 93.5963 84.4035 95.6515 83.4613 97.2835C82.519 98.9154 80.4647 99.4974 78.9182 98.6045C77.3459 97.6967 76.8485 95.6416 77.7907 94.0096Z" fill="#323063"/>
<path d="M93.6259 112.298C94.0125 112.521 94.2372 113.025 94.2668 113.688C94.6495 112.549 94.4026 111.488 93.8098 111.146C93.0107 110.685 91.6265 111.415 90.861 112.741C90.4929 113.379 90.32 114.095 90.3128 114.703C90.4084 114.418 90.5299 114.148 90.6771 113.893C91.4427 112.567 92.8011 111.821 93.6259 112.298Z" fill="#F3A334"/>
<path d="M81.4802 75.2979C81.5097 75.2469 81.4876 75.1662 81.436 75.1364L76.049 72.0262C75.9975 71.9965 75.9165 72.0177 75.887 72.0687C75.7178 72.481 75.4344 73.2693 75.0554 74.3425L81.2157 77.8991C80.9946 77.0915 81.0607 76.1437 81.4802 75.2979Z" fill="#F3A334"/>
<path d="M93.1306 82.7384C93.241 82.1902 93.252 81.9925 92.6334 81.6354L88.2516 79.1056C88.2 79.0758 88.1191 79.097 88.0896 79.148C87.5927 79.9491 86.8049 80.4803 85.9287 80.6884L92.4756 84.4682L93.1306 82.7384Z" fill="#F3A334"/>
<path d="M100.354 119.038C100.53 118.732 100.6 118.432 100.56 118.205C100.486 117.857 97.8767 103.804 97.0069 99.3582C96.9775 99.1711 96.8155 99.2136 96.7345 99.2349C96.2338 99.3878 95.7515 99.4493 95.2912 99.3536L99.3157 120.717C99.6949 120.12 100.045 119.574 100.354 119.038Z" fill="#F3A334"/>
<path d="M95.2971 91.129C95.3119 91.1035 95.426 90.9653 95.4039 90.8846C95.3707 90.7634 95.3338 90.4702 95.2527 90.0154C95.1016 89.1461 94.7625 87.1144 94.4972 85.6692C94.4898 85.5629 94.3315 85.5395 94.2726 85.6415L93.2275 88.4041L94.0162 92.6334C94.3806 92.0618 94.8223 91.5348 95.2971 91.129Z" fill="#F3A334"/>
</g>
<g clip-path="url(#clip2)">
<path d="M128.161 119.624L126.748 119.833L110.701 122.511C110.642 122.511 110.583 122.601 110.613 122.66C110.73 122.898 110.936 123.464 110.936 124.238C110.936 127.035 108.64 129.297 105.813 129.297C103.016 129.297 100.749 127.065 100.69 124.327C100.631 124.267 100.631 124.267 100.572 124.208L70.2443 129.386C69.7143 129.565 69.5376 129.654 69.5376 130.369V135.428C69.5376 135.488 69.5965 135.547 69.6554 135.547C71.5987 135.637 73.1887 137.303 73.1887 139.357C73.1887 141.411 71.6282 143.107 69.6554 143.167C69.5965 143.167 69.5376 143.226 69.5376 143.286V149.506C69.5376 149.565 69.5965 149.625 69.6554 149.625C72.7176 149.089 95.5665 145.19 112.526 142.303C112.791 142.244 113.056 142.214 113.321 142.155C113.38 142.155 113.41 142.095 113.41 142.036C113.321 141.678 113.292 141.291 113.292 140.905C113.292 137.988 115.706 135.607 118.71 135.607C121.448 135.607 123.715 137.601 124.069 140.22C124.069 140.28 124.128 140.339 124.186 140.309C125.953 140.012 127.308 139.774 128.132 139.625C128.191 139.625 128.22 139.565 128.22 139.506C128.22 139.238 128.22 138.791 128.22 138.196C128.25 134.416 128.338 124.386 128.338 120.368C128.338 120.13 128.309 119.892 128.25 119.654C128.279 119.654 128.22 119.624 128.161 119.624Z" fill="#FFC964"/>
<path d="M72.1875 126.946L101.102 122.095C101.131 122.095 101.161 122.065 101.19 122.035C102.044 120.428 103.781 120.041 105.077 119.863C105.312 119.833 105.577 119.803 105.813 119.803C106.961 119.803 108.08 120.13 108.964 120.726C108.993 120.755 109.022 120.755 109.052 120.755L126.424 117.839L127.131 117.72C127.16 117.601 127.16 117.63 127.19 117.541C125.452 115.696 123.627 114.118 121.801 112.749C121.772 112.72 121.713 112.72 121.684 112.749C120.859 113.255 119.829 113.553 118.68 113.553C115.971 113.553 113.851 111.886 113.851 109.773C113.851 109.297 113.969 108.85 114.146 108.434C114.175 108.374 114.146 108.315 114.087 108.285C107.786 105.547 101.897 104.981 98.0397 104.981C97.6864 104.981 97.3919 105.071 97.2153 105.219C96.9503 105.457 86.0853 114.743 82.6697 117.72C82.5225 117.839 82.6403 117.958 82.6992 118.017C83.3469 118.612 83.7003 119.357 83.7003 120.16C83.7003 121.44 82.7581 122.601 81.1975 123.226C80.4319 123.523 79.5192 123.702 78.6358 123.702C77.8703 123.702 77.0753 123.583 76.3981 123.345C76.3686 123.345 76.192 123.315 76.1331 123.374C76.0447 123.464 75.8092 123.642 75.4558 123.94C74.7786 124.505 73.1886 125.815 72.0697 126.767C72.0108 126.827 72.0697 126.976 72.1875 126.946ZM97.3625 110.874C100.071 110.874 102.191 112.541 102.191 114.654C102.191 116.767 100.071 118.434 97.3625 118.434C94.6536 118.434 92.5336 116.767 92.5336 114.654C92.5336 112.541 94.6536 110.874 97.3625 110.874Z" fill="#FFE183"/>
<path d="M87.6753 130.488C85.7909 130.488 84.2598 131.976 84.2598 133.762C84.2598 135.577 85.7909 137.035 87.6753 137.035C89.5598 137.035 91.0909 135.547 91.0909 133.762C91.0909 131.976 89.5598 130.488 87.6753 130.488Z" fill="#F3A334"/>
<path d="M85.6731 133.791C85.6731 132.214 86.8509 130.904 88.382 130.577C88.1464 130.518 87.9109 130.518 87.6753 130.518C85.7909 130.518 84.2598 132.006 84.2598 133.791C84.2598 135.607 85.7909 137.065 87.6753 137.065C87.9109 137.065 88.1464 137.036 88.382 137.006C86.8214 136.678 85.6731 135.369 85.6731 133.791Z" fill="#E87E04"/>
<path d="M105.813 121.857C105.637 121.857 105.489 121.857 105.313 121.886C103.428 122.124 102.987 122.72 102.81 123.315C102.722 123.613 102.692 123.702 102.692 124.267C102.692 125.964 104.105 127.333 105.813 127.333C107.55 127.333 108.934 125.964 108.934 124.267C108.934 123.464 108.493 122.928 108.11 122.63C107.55 122.124 106.697 121.857 105.813 121.857Z" fill="#FFC964"/>
<path d="M104.223 124.029C104.223 123.226 104.518 122.482 105.018 121.916C103.399 122.184 102.987 122.72 102.81 123.285C102.722 123.583 102.692 123.672 102.692 124.238C102.692 125.934 104.105 127.303 105.813 127.303C106.137 127.303 106.432 127.244 106.697 127.184C105.283 126.797 104.223 125.517 104.223 124.029Z" fill="#F3A334"/>
<path d="M97.3625 116.41C98.8641 116.41 100.219 115.577 100.219 114.654C100.219 113.821 99.0408 112.898 97.3625 112.898C95.6841 112.898 94.5063 113.821 94.5063 114.654C94.5063 115.577 95.8313 116.41 97.3625 116.41Z" fill="#FFC964"/>
<path d="M128.721 116.261C126.984 114.416 125.129 112.749 123.126 111.261C122.832 111.053 122.567 110.844 122.273 110.636C121.89 110.368 121.389 110.428 121.036 110.755C120.741 111.023 120.3 111.261 119.829 111.41C119.475 111.499 119.093 111.559 118.68 111.559C117.179 111.559 115.824 110.725 115.824 109.803C115.824 109.594 115.883 109.416 116.001 109.208C116.178 108.94 116.443 108.702 116.796 108.493C117.238 108.255 117.208 107.6 116.737 107.362C116.384 107.184 116.001 107.005 115.618 106.827C113.91 106.053 112.144 105.368 110.289 104.803C106.343 103.612 102.191 102.987 98.0692 102.987C97.2448 102.987 96.4793 103.225 95.9493 103.701C95.7137 103.91 83.1409 114.684 80.6676 116.797C80.432 117.005 80.2259 117.243 80.1082 117.452C79.7843 118.047 80.0787 118.732 80.6676 119.029C81.3154 119.327 81.6393 119.803 81.6393 120.19C81.6393 120.607 81.2565 121.023 80.4909 121.321C79.9315 121.529 79.3132 121.648 78.6654 121.648C78.1059 121.648 77.5465 121.559 77.0459 121.41C77.0459 121.41 76.6043 121.232 76.2509 121.232C75.7798 121.232 75.3087 121.44 74.8671 121.797C74.7787 121.857 74.5432 122.065 74.2193 122.333C71.6576 124.476 69.8615 125.994 69.4198 126.529C68.8604 127.184 68.5365 127.72 68.4187 127.898C68.1832 128.196 67.5354 129.238 67.5354 130.904V136.083C67.5354 137.125 68.2126 137.601 68.9193 137.601C69.0665 137.601 69.1843 137.571 69.2432 137.571H69.2726C69.3315 137.571 69.4198 137.571 69.4787 137.571C70.3915 137.571 71.1571 138.375 71.1571 139.387C71.1571 140.399 70.3915 141.202 69.4787 141.202C69.4198 141.202 69.361 141.202 69.3021 141.202C69.2432 141.202 69.1843 141.202 69.096 141.202C68.3304 141.202 67.5354 141.768 67.5354 142.75V149.952C67.5354 150.964 68.301 151.768 69.3021 151.768C69.4198 151.768 69.5376 151.768 69.6554 151.738C70.3915 151.619 95.9492 147.244 112.85 144.387C113.351 144.298 113.851 144.208 114.323 144.149H114.381C115.294 144 115.795 143.018 115.471 142.155C115.441 142.095 115.412 142.006 115.383 141.946C115.294 141.649 115.235 141.351 115.235 141.053C115.235 139.238 116.766 137.78 118.651 137.78C120.447 137.78 121.919 139.119 122.066 140.815C122.066 140.905 122.066 140.964 122.066 141.053V141.083C122.066 142.006 122.891 142.72 123.774 142.542H123.833C126.1 142.155 127.808 141.857 128.662 141.708C129.339 141.589 130.164 141.202 130.164 139.922C130.164 139.863 130.164 139.297 130.164 138.375C130.193 134.595 130.281 124.535 130.281 120.517C130.281 119.446 129.899 118.404 129.81 118.196C129.81 117.898 129.457 117.035 128.721 116.261ZM72.0993 126.767C73.2182 125.785 74.8082 124.476 75.4854 123.94C75.8387 123.642 76.0743 123.434 76.1626 123.374C76.2215 123.345 76.3982 123.345 76.4276 123.345C77.1048 123.583 77.8998 123.702 78.6654 123.702C79.5782 123.702 80.4615 123.523 81.227 123.226C82.7876 122.571 83.7298 121.44 83.7298 120.13C83.7298 119.327 83.3765 118.612 82.7287 117.987C82.6698 117.928 82.552 117.809 82.6993 117.69C86.1443 114.743 96.9798 105.428 97.2448 105.19C97.4215 105.041 97.7159 104.952 98.0692 104.952C101.897 104.952 107.786 105.517 114.116 108.255C114.175 108.285 114.205 108.344 114.175 108.404C113.969 108.821 113.881 109.267 113.881 109.743C113.881 111.856 116.001 113.523 118.71 113.523C119.858 113.523 120.889 113.225 121.713 112.72C121.743 112.69 121.801 112.69 121.831 112.72C123.656 114.089 125.453 115.666 127.219 117.511C127.19 117.63 127.19 117.601 127.16 117.69L126.424 117.868L109.052 120.785C109.023 120.785 108.993 120.785 108.964 120.755C108.08 120.16 106.961 119.833 105.813 119.833C105.548 119.833 105.313 119.863 105.077 119.892C103.781 120.071 102.015 120.458 101.19 122.065C101.161 122.095 101.161 122.124 101.102 122.124L72.1876 126.946C72.0698 126.976 72.011 126.827 72.0993 126.767ZM108.139 122.63C108.522 122.928 108.964 123.464 108.964 124.267C108.964 125.964 107.55 127.333 105.843 127.333C104.105 127.333 102.721 125.964 102.721 124.267C102.721 123.702 102.751 123.613 102.839 123.315C103.016 122.72 103.458 122.124 105.342 121.886C105.519 121.857 105.666 121.857 105.843 121.857C106.696 121.857 107.55 122.124 108.139 122.63ZM128.25 138.226C128.25 138.821 128.25 139.268 128.25 139.536C128.25 139.595 128.22 139.625 128.161 139.655C127.337 139.803 125.983 140.041 124.216 140.339C124.157 140.339 124.098 140.309 124.098 140.25C123.745 137.66 121.478 135.637 118.739 135.637C115.765 135.637 113.321 138.018 113.321 140.934C113.321 141.321 113.38 141.678 113.439 142.065C113.439 142.125 113.41 142.184 113.351 142.184C113.086 142.244 112.821 142.274 112.556 142.333C95.6254 145.22 72.7471 149.119 69.6848 149.655C69.626 149.655 69.5671 149.625 69.5671 149.536V143.315C69.5671 143.256 69.626 143.196 69.6848 143.196C71.6282 143.107 73.2182 141.44 73.2182 139.387C73.2182 137.333 71.6576 135.637 69.6848 135.577C69.626 135.577 69.5671 135.518 69.5671 135.458V130.369C69.5671 129.654 69.7437 129.565 70.2737 129.387L100.601 124.238C100.66 124.297 100.66 124.297 100.719 124.357C100.778 127.095 103.045 129.327 105.843 129.327C108.669 129.327 110.966 127.065 110.966 124.267C110.966 123.494 110.76 122.928 110.642 122.69C110.613 122.63 110.642 122.541 110.73 122.541L126.778 119.863L128.191 119.654C128.25 119.654 128.309 119.684 128.309 119.743C128.368 119.982 128.397 120.22 128.397 120.458C128.368 124.416 128.279 134.446 128.25 138.226Z" fill="#323063"/>
<path d="M97.3628 118.404C100.072 118.404 102.192 116.737 102.192 114.624C102.192 112.511 100.072 110.844 97.3628 110.844C94.6539 110.844 92.5339 112.511 92.5339 114.624C92.5339 116.737 94.6539 118.404 97.3628 118.404ZM97.3628 112.868C99.0412 112.868 100.219 113.791 100.219 114.624C100.219 115.547 98.8939 116.38 97.3628 116.38C95.8612 116.38 94.5067 115.547 94.5067 114.624C94.5067 113.821 95.6845 112.868 97.3628 112.868Z" fill="#323063"/>
<path d="M87.6753 128.494C84.7015 128.494 82.2576 130.875 82.2576 133.791C82.2576 136.708 84.672 139.089 87.6753 139.089C90.6492 139.089 93.0931 136.708 93.0931 133.791C93.0931 130.875 90.6492 128.494 87.6753 128.494ZM87.6753 137.065C85.7909 137.065 84.2598 135.577 84.2598 133.791C84.2598 131.976 85.7909 130.518 87.6753 130.518C89.5598 130.518 91.0909 132.006 91.0909 133.791C91.0909 135.607 89.5598 137.065 87.6753 137.065Z" fill="#323063"/>
<path d="M95.5958 114.208C95.5958 113.761 95.9197 113.315 96.4791 112.958C95.3013 113.196 94.5063 113.94 94.5063 114.624C94.5063 115.547 95.8313 116.38 97.3625 116.38C98.0986 116.38 98.8052 116.172 99.3352 115.874C99.0408 115.934 98.7463 115.964 98.4519 115.964C96.9208 115.964 95.5958 115.16 95.5958 114.208Z" fill="#F3A334"/>
<path d="M69.6261 143.226C69.5672 143.226 69.5083 143.286 69.5083 143.345V149.566C69.5083 149.625 69.5672 149.685 69.6261 149.685C70.0677 149.625 70.8922 149.476 72.0111 149.268V142.155C71.4222 142.75 70.5683 143.167 69.6261 143.226Z" fill="#F3A334"/>
<path d="M70.2445 129.416C69.7145 129.595 69.5378 129.684 69.5378 130.398V135.458C69.5378 135.518 69.5967 135.577 69.6556 135.577C70.5978 135.607 71.4517 136.024 72.0701 136.678V129.119L70.2445 129.416Z" fill="#F3A334"/>
<path d="M98.0695 105.011C97.7162 105.011 97.4217 105.1 97.245 105.249C96.98 105.487 86.1151 114.773 82.6995 117.749C82.5523 117.868 82.6701 117.987 82.729 118.047C83.1117 118.404 83.4062 118.791 83.5534 119.238L100.042 105.071C99.3356 105.041 98.6878 105.011 98.0695 105.011Z" fill="#F3A334"/>
<path d="M76.4277 123.345C76.3983 123.345 76.2216 123.315 76.1627 123.374C76.0744 123.464 75.8389 123.642 75.4855 123.94C74.8083 124.505 73.2183 125.815 72.0994 126.767C72.0111 126.827 72.07 126.976 72.1877 126.976L75.1027 126.5L78.3711 123.702C77.6939 123.672 77.0166 123.553 76.4277 123.345Z" fill="#F3A334"/>
</g>
<path d="M18.4788 47.9902C17.9125 47.9902 17.3313 47.7671 16.8991 47.3356C16.0348 46.4726 16.0348 45.0591 16.8991 44.1813C17.987 43.0952 17.987 41.3395 16.8991 40.2533C15.543 38.8994 14.783 37.0842 14.783 35.15C14.783 33.2157 15.543 31.4005 16.8991 30.0317C17.7635 29.1688 19.1792 29.1688 20.0585 30.0317C20.9378 30.8947 20.9229 32.3081 20.0585 33.186C19.5369 33.7067 19.2538 34.406 19.2538 35.15C19.2538 35.8939 19.5369 36.5932 20.0734 37.1139C22.9049 39.9409 22.9049 44.5235 20.0734 47.3505C19.6263 47.7819 19.06 47.9902 18.4788 47.9902Z" fill="#FDBF00"/>
<path d="M60.8104 33.8851C60.2441 33.8851 59.6628 33.6619 59.2307 33.2304C58.3663 32.3674 58.3663 30.954 59.2307 30.0761C59.8119 29.4959 59.8119 28.5585 59.2307 27.9782C58.113 26.8623 57.4871 25.3596 57.4871 23.7825C57.4871 22.2053 58.113 20.7026 59.2307 19.5867C60.095 18.7237 61.5108 18.7237 62.39 19.5867C63.2544 20.4496 63.2544 21.8631 62.39 22.7409C62.1069 23.0236 61.9579 23.3956 61.9579 23.7825C61.9579 24.1693 62.1069 24.5561 62.39 24.824C64.7149 27.145 64.7149 30.9093 62.39 33.2155C61.9579 33.6619 61.3916 33.8851 60.8104 33.8851Z" fill="#FDBF00"/>
<path d="M103.745 55.8788C103.179 55.8788 102.598 55.6556 102.166 55.2242C101.301 54.3612 101.301 52.9477 102.166 52.0699C102.687 51.5491 102.985 50.8498 102.985 50.1059C102.985 49.362 102.702 48.6627 102.166 48.1419C99.3341 45.315 99.3341 40.7323 102.166 37.9054C103.03 37.0424 104.446 37.0424 105.325 37.9054C106.204 38.7684 106.189 40.1818 105.325 41.0597C104.237 42.1458 104.237 43.9015 105.325 44.9876C106.696 46.3565 107.441 48.1717 107.441 50.1059C107.441 52.0401 106.681 53.8553 105.325 55.2242C104.893 55.6556 104.327 55.8788 103.745 55.8788Z" fill="#FF9F00"/>
<path d="M123.494 95.897C122.928 95.897 122.346 95.6739 121.914 95.2424C121.05 94.3794 121.05 92.9659 121.914 92.0881C122.436 91.5673 122.734 90.868 122.734 90.1241C122.734 89.3802 122.451 88.6809 121.914 88.1601C119.083 85.3332 119.083 80.7506 121.914 77.9236C122.779 77.0607 124.194 77.0607 125.074 77.9236C125.953 78.7866 125.938 80.2001 125.074 81.0779C123.986 82.164 123.986 83.9197 125.074 85.0059C126.445 86.3747 127.19 88.1899 127.19 90.1241C127.19 92.0583 126.43 93.8735 125.074 95.2424C124.641 95.6739 124.075 95.897 123.494 95.897Z" fill="#FF9F00"/>
<defs>
<clipPath id="clip0">
<rect width="62.9727" height="48.2791" fill="white" transform="translate(186.454 45.6859) rotate(159.99)"/>
</clipPath>
<clipPath id="clip1">
<rect width="62.8049" height="48.6915" fill="white" transform="translate(117.373 93.6069) rotate(120)"/>
</clipPath>
<clipPath id="clip2">
<rect width="62.8049" height="48.6915" fill="white" transform="translate(67.5354 102.987)"/>
</clipPath>
</defs>
</svg>
